<?xml version="1.0" encoding="utf-8"?>
<!-- Generator: Adobe Illustrator 19.0.0, SVG Export Plug-In . SVG Version: 6.00 Build 0)  -->
<svg version="1.1" id="Warstwa_1" xmlns="http://www.w3.org/2000/svg" xmlns:xlink="http://www.w3.org/1999/xlink" x="0px" y="0px"
	 viewBox="0 0 839 255" style="enable-background:new 0 0 839 255;" xml:space="preserve">
<style type="text/css">
	.st0{fill:#E5E5E5;}
</style>
<g>
	<path class="st0" d="M821.4,232.9c-1.4-0.9-2.2-1.4-2.9-1.9c0-0.2,0.1-0.4,0.1-0.6c4.1,0,8.3,0,12.4,0c0-0.2,0.1-0.5,0.1-0.7
		c-2.2-0.7-4.4-1.3-6.5-2c0-0.1,0.1-0.2,0.1-0.3c5,0,10.1,0,15.1,0c-6.3-0.6-12.7-0.2-18.8-1.5c-8.8-2-17.3-5.1-25.9-7.9
		c-0.7-0.2-1.1-1.4-1.7-2.1c1.1-0.4,2.1-1,3.2-1.2c2.9-0.5,5.8-0.7,8.3-1.1c-1.9,2.6-2,3.9,0.5,5.4c4.2,2.5,8.6,4.6,13.4,4.1
		c-1.6-3.9-0.1-7.9-0.3-11.8c-0.2-4.1-0.8-8.3-1.2-12.4c0.2,0,0.5-0.1,0.7-0.1c0.3,0.6,0.6,1.2,1.3,2.6c0-2.7-0.2-4.9,2.6-5.1
		c0.3,0,0.5-1,0.8-1.5c0.7-1.6,1.4-3.3,2-4.9c-1.2,8.4-2.5,16.8-3.7,25.1c10-22.5,13.1-46.4,14.3-70.8c-5,0.3-3.2-4.7-5.6-7.2
		c0,1.8,0,3.1,0,4.8c-1.7-0.7-3.1-1.1-4.4-1.8c-7-3.4-13.8-7.2-20.9-10.4c-13-5.9-26.1-11.6-39.2-17.1c-9.1-3.8-18.4-7.2-27.7-10.7
		c-0.5-0.2-1.6-0.4-1.6-0.4c-0.8,2.5-2.5,0.7-3.6,0.5c-1.9-0.3-3.8-1-5.7-1.5c-2.8-0.7-5.5-1.3-8.3-1.9c0.5,1,1.4,1.3,1.7,1.9
		c2.5,5.7,7.8,8.5,12.4,11.7c4,2.8,9,4.2,13.6,6.4c9.3,4.3,18.6,8.6,27.8,13c0.4,0.2,0.6,0.5,0.9,0.8c-8.9-2.1-17.5-4.9-26.2-7.4
		c-7.4-2.1-14.8-4-22.3-5.8c-0.6-0.1-1.4,0.4-2,0.6c0.5,0.6,0.9,1.3,1.5,1.8c1.1,0.8,2.5,1.2,3.3,2.2c7,8.6,13.9,17.4,20.8,26
		c0.2,0.3,0.7,0.4,1,0.6c0.2-0.2,0.4-0.3,0.6-0.5c-1.9-3.2-3.8-6.4-5.7-9.6c-0.5-0.9-1.4-2-1.3-2.9c0.5-3.3,2.9-4.4,6.4-3.7
		c5.8,1,11.6,1.7,17.3,2.6c0.2-0.4,0.5-0.7,0.7-1.1c-0.8-0.2-1.6-0.5-2.5-0.7c0.2-0.2,0.4-0.5,0.6-0.7c5,1.4,10.1,2.5,15,4.1
		c8.4,2.8,16.7,5.8,25.1,8.7c1.1,0.4,2.3,0.4,3.5,0.6c-0.2-0.4-0.4-0.8-0.6-1.1c1.2-1.3,2.2-3.3,3.7-3.7c1.8-0.5,4.1,0.3,7.1,0.7
		c-2.4-2.3-4.3-4-6.1-5.7c4.1,1,8.1,2.4,11.9,4.1c3.8,1.7,6.5,7.2,5.6,11.4c-1.4,7-2.9,14.1-4.4,21.1c-1.1,5.2-2.2,10.4-3.3,15.6
		l0,0v0l0,0c0.5-4.2,1.1-8.4,1.5-12.6c0.3-3.3,0.7-6.7,0.7-10c0-2.1-0.7-4.3-1-6.4c-0.1-0.9,0-1.9,0-2.8c-2.8,11.8-2.4,24-5.8,35.6
		c-0.6-2.9-1-5.7-1-8.5c0-5.5-2-10.9,0.1-16.4c0.3-0.7-0.9-2-1.3-3c-0.4-0.8-0.6-1.6-1-2.5c0.9,0,1.8-0.1,2.6,0.1
		c0.6,0.1,1,0.7,1.8,1.3c0.4-2.9-0.8-4-3-3.7c-2.3,0.2-4.7,0.7-7,1.2c-4,0.9-8,2-12,2.7c-2.7,0.5-5.6,0.6-8.4,0.8
		c-2.9,0.2-4.3,2.3-5.2,4.6c-4.9,12.6-9.7,25.1-14.4,37.8c-1,2.8-2.5,3.2-5.1,2.4c-5.5-1.5-11.1-2.6-16.6-4.3
		c-2.1-0.7-5.3,1.7-6.2-1.4c-0.6-2.1,0.1-4.7,0.6-7c0.3-1.4,1.3-2.7,1.8-3.6c-0.3-1.6-1-3.1-1-4.7c0.1-5.4,0.6-10.8,0.6-16.2
		c-0.1-15.3-5.2-29-14-41.3c-9.8-13.7-22.7-23.4-38.9-28.3c-9.6-2.9-19.3-4.6-29.4-3.4c-3.2,0.4-6.5,0.8-9.7,0.6
		c-13.8-0.8-27.7-1.9-41.5-2.7c-11.1-0.7-22.2-1.3-33.3-2c-2.5-0.2-4.9-0.5-7.3-0.8c0.6-0.6,1.1-0.8,1.7-0.8
		c14.8-0.8,29.7-1.9,44.5-2.3c27.8-0.8,55.6-0.6,82.8,6.3c4.9,1.2,9.7,3,14.6,4.4c0.9,0.2,2.1-0.6,3.2-1c-0.8-0.7-1.4-1.6-2.3-2.1
		c-1.9-1-4-1.7-6-2.5c-5.8-2.3-11.4-5.6-17.5-6.7c-9.3-1.7-18.9-2.6-28.4-2.6c-17.3,0.1-34.6,1-51.9,1.7c-8.4,0.3-16.7,0.9-25.1,1.2
		c-17.6,0.8-35.2,1.5-52.8,2.2c-4.7,0.2-6.8-3.5-9.6-6.1c0.1-0.3,0.2-0.6,0.3-1c4.3,0.2,8.6,0.4,13.5,0.7c-1-0.7-1.5-1-2.5-1.7
		c4.3,0,8,0,11.7,0c0-0.3,0-0.5,0-0.8c-2.6,0-5.3-0.4-7.8,0.1c-4.8,0.8-7.6-1.8-9.8-4.6c5.2,0.5,10.9,1.3,16.6,1.5
		c11.6,0.4,23.2,0.4,34.8,0.6c2.7,0.1,5.5,0.5,8.2,0.7c1,0.1,2.9,0,3-0.3c0.9-3.4,3.5-2.1,5.4-2.1c17.2,0.5,34.4,1,51.6,1.8
		c7.8,0.3,15.6,0.8,23.2,1.9c7.2,1.1,14.6,0.8,21.5,3.8c2.8,1.2,6,1.2,9,1.8c6.4,1.3,12.8,2.6,19.2,3.9c2.3,0.5,4.7,1,7,1.4
		c0.1-0.4,0.2-0.7,0.2-1.1c-7.3-1.7-14.5-3.4-21.8-5.2c-18.7-4.7-37.7-6.9-56.9-8c-8-0.4-15.9-1.1-23.8-1.6
		c-6.3-0.4-12.7-0.6-19-0.7c-4.6-0.1-9.3,0-13.9,0c0-0.3,0-0.5,0-0.8c3.6,0,7.1,0,10.7,0c0-0.3,0.1-0.6,0.1-0.9
		c-1.5-0.2-2.9-0.4-4.4-0.7c-5.3-1-10.8,0.2-15.8-4c-14.1-12-30.5-20.6-47.1-28.6c-19.5-9.5-38.9-19.4-60-25.5
		c-4.9-1.4-9.7-3.3-14.6-4.6c-8.5-2.1-17.1-3.9-25.6-5.9c-3-0.7-5.9-2.2-9-2.6c-5.9-0.7-11.9-0.9-17.9-1.3c-3.2-0.2-6.5-0.5-9.7-0.8
		c1.3,0.8,2.6,1,4,1.2c1.2,0.2,2.5,0.3,3.7,0.5c-97.8,2.8-194.2,16.6-290.5,31.7c0,0.4,0.1,0.8,0.1,1.2c27.1-3.9,54.2-7.8,81.3-11.6
		c-0.8,0.9-1.8,1.1-2.7,1.3c-23.1,4.2-46.2,8.2-69.2,12.6c-13,2.5-26.1,4.8-38.9,8.6c-9.4,2.9-19.4,3.9-29.2,5.5
		c-7.4,1.2-14.9,1.9-22.3,2.8c0,0.2,0.1,0.5,0.1,0.7c2.7-0.2,5.5-0.4,8.2-0.6c7.7-0.4,15.5-0.8,23.2-1.1c8.2-0.3,16.5-0.5,24.7-0.7
		c1.1,0,2.2,0.1,3.2-0.2c5.7-1.8,10.2,0.8,14.9,4.3c-4.8,0-9.6,1.2-13.2-0.4c-3.4-1.5-6-0.2-8.9-0.1c-2.4,0-4.8,0.8-7.2,1.1
		c-4.7,0.5-9.4,1-14.1,1.3c-7.9,0.6-15.8,1.1-23.7,1.6c-0.7,0-2.1-0.5-2.1-1c-0.4-2.5-2-1.9-3.5-1.6c-2,0.4-4.1,0.5-6.1,1
		c-1,0.3-1.8,1.3-2.6,2c-0.6,0.8-1.6,1.1-2.5,1.2c-4.2,0.5-7.5,2-9.8,6C14.2,76.5,12.8,83,13,89.9c0,1.3,0.8,2.6,1.4,3.7
		c2,3.3,0.9,5.4-2.8,5.9c-3.3,0.5-6.5,1.2-9.8,1.9c1.1,0.4,2.2,0.3,3.3,0.4c3,0.3,6.6-1.2,8.4,2.8c0.1,0.2,0.7,0.1,1.1,0.1
		c-1.3-2.9,1-2.2,2.2-2.2c10.7-0.1,21.4,0,32.1,0c7.9,0,15.8,0.4,23.6-0.1c7.1-0.4,14.1-1.7,21.2-2.7c-1.4-0.1-2.6-0.3-3.9-0.4
		c-0.1-0.3-0.2-0.6-0.3-0.9c2.7-2,5.3-4.4,8.2-5.9c4.2-2.2,8.6-4,13.1-5.6c3.1-1.1,6.4-2.1,9.6-2.1c9.4-0.1,18.9,0.2,28.3,0.5
		c13.1,0.4,26.2,0.7,39.2,1.4c3.5,0.2,7.3-1,10.5,1.7c3.8,3,7.7,5.8,11.7,8.6c0.8,0.6,2,0.8,3,1.2c0.2-0.2,0.3-0.4,0.5-0.7
		c-0.7-1.2-1.4-2.3-2.2-3.5c0.2-0.2,0.4-0.4,0.6-0.7c0.9,0.6,2.1,1.1,2.8,1.9c2.1,2.7,3.9,5.6,5.9,8.4c7.5,10.1,15,20.2,22.5,30.4
		c10.2,13.7,20.3,27.3,30.5,41c1.7,2.2,3.2,4.5,5.2,7.4c0.2-1.5,0.3-2.2,0.4-3.1c6.1,7.4,12,14.5,17.9,21.6
		c-0.1,0.1-0.2,0.2-0.4,0.4c-1.4-0.5-2.7-1-4.1-1.5c0,0.3,0.1,0.5,0.1,0.8c-0.9,0.5-1.8,1.3-2.7,1.3c-5.4,0.3-10.8,0.4-16.2,0.7
		c-1.3,0.1-2.6,0.5-3.9,0.8c0,0.4,0,0.8,0.1,1.2c3.7,2.1,8.1,0.1,12.7,1.6c-1.4,0.3-2,0.4-2.5,0.5c-5,0.2-10,0.3-15,0.7
		c-0.9,0.1-1.9,1.3-2.5,2.2c-0.1,0.2,0.9,1.5,1.7,2c2.5,1.6,5,3,7.6,4.5c-0.1,0.2-0.2,0.3-0.3,0.5c-5-2.2-10-4.5-15-6.7
		c-0.2,0.3-0.3,0.7-0.5,1c8.5,4.6,17,9.2,25.5,13.9c-0.2,0.3-0.3,0.6-0.5,0.9c-10.5-5-20.3-11.6-31.4-15.4c-0.1,0.2-0.3,0.5-0.4,0.7
		c8.5,4.6,17,9.3,25.5,13.9c-0.2,0.4-0.4,0.7-0.5,1.1c-1.9-0.7-3.8-1.4-5.6-2.3c-6.4-3.2-12.8-6.6-19.2-9.8
		c-1.7-0.9-3.6-1.4-5.4-2.1c-0.1,0.2-0.2,0.5-0.3,0.7c5,2.8,10.1,5.6,15.1,8.4c-0.1,0.2-0.2,0.4-0.3,0.5c-7-3.5-14-6.9-20.9-10.4
		c-0.1,0.3-0.3,0.6-0.4,0.9c8.2,4.5,16.4,9,24.6,13.6c-0.1,0.3-0.2,0.5-0.4,0.8c-2.3-1-4.7-1.8-6.9-2.9c-7.8-4.1-15.6-8.4-23.4-12.5
		c-1.5-0.8-3.1-1.2-4.9,1c7.7,4.6,15.2,9.1,22.7,13.5c-0.2,0.3-0.4,0.6-0.5,0.9c-8.1-4.6-16.2-9.1-24.4-13.8
		c0.3-1.6,0.5-3.5,0.8-5.3c0.9-5.5,3.8-7.9,9.5-7.9c11.6,0,23.3,0,34.9-0.1c1,0,2-0.1,3-0.2c0-0.4,0-0.7,0-1.1c-8.8,0-17.6,0-26.4,0
		c0-0.4,0-0.9,0-1.3c6.8,0,13.6,0,20.4,0c0-0.5,0-0.9,0-1.4c-12.5,0-25,0-37.5,0c0-0.4,0-0.8,0-1.3c13.7,0,27.5,0,41.2,0
		c0-0.3,0-0.5,0.1-0.8c-0.4-0.1-0.8-0.4-1.2-0.4c-4.1-0.2-8.2-0.5-12.4-0.7c-8.3-0.2-16.5-0.4-24.8-0.5c-2.5,0-3.2-0.8-3-3.4
		c0.5-6.7,1.3-13.4,0.8-20c-0.4-5.7-2.2-11.3-3.8-16.9c-0.5-1.8-2.5-3.1-3.4-4.9c-3.3-6.3-5.8-13-9.7-18.8
		c-8-12.2-19.2-21.1-32.6-26.9C168.1,95,155.4,92.7,142,94c-13.6,1.3-26,5.5-37.1,13.3c-17.6,12.5-28.7,29.5-32.3,51
		c-0.4,2.2-1.2,3.3-3.6,3.3c-2.2,0-4.4,0.5-6.7,0.8c0,0.3,0.1,0.6,0.1,0.8c2-0.2,4-0.4,6.1-0.5c3.3-0.1,3.6,0.4,3.6,3.8
		c-0.1,4.1-0.1,8.2,0.1,12.3c0.2,4,0.3,4.1-3.8,4c-14.1-0.5-28.1-1.2-42.2-1.8c-2-0.1-2.7-1.1-3.1-2.9c-5.2-21.2-8.2-42.7-9.4-64.5
		c-0.3-5.9-0.1-5.9,5.6-6c0.4,0,0.8-0.1,1.2-0.2c0-0.2,0-0.3-0.1-0.5c-5.3,0.3-10.7,0.6-16,0.9c1.4,0.4,2.8,0.4,4.1,0.4
		c3.7,0,3.8,0.2,3.9,3.8c0.2,6.1,0.3,12.2,0.7,18.3c1.1,15.7,3.9,31,7.5,46.3c0.6,2.5,1,4.8-1.7,6.8c3.3,2,5.6,4.4,5.3,9
		c-4-0.6-7.9-1.1-11.7-1.7c-3.8-0.6-7.6-1.4-11.4-2.1c-0.1,0.3-0.1,0.6-0.2,0.9c1,0.3,1.9,0.6,2.9,0.8c6.3,1.2,12.6,2.5,18.9,3.6
		c1.9,0.3,3,1.1,3.7,2.9c0.9,2.4,2,4.7,2.9,7.1c0.1-0.1,0.3-0.1,0.4-0.2c-0.8-2.8-1.5-5.7-2.3-8.5c0.3-0.2,0.6-0.3,0.9-0.5
		c4.2,2,6.4,6.5,10.2,8.9c3.8,2.5,8.1,4.1,12.2,6.2c-0.1,0.2-0.2,0.5-0.3,0.7c-7.7-0.6-15.4-1.1-23.1-1.7c0,0.3-0.1,0.7-0.1,1
		c3,0.3,6,0.5,8.9,0.9c5.7,0.8,11.4,1.7,17.1,2.6c8.7,1.4,17.4,3.3,26.2,4.2c5.4,0.6,9.5,3.1,13,6.8c11,11.9,24.4,19.7,40.3,23
		c0.8,0.2,1.6,0.4,2.5,0.6c-22.9,0.5-45.6,0.5-68.4,0.5c-22.7,0-45.5,0-68.2,0c0,0.5-0.1,1.1-0.1,1.6c1.4,0.2,2.7,0.6,4.1,0.7
		c26.5,0.2,53,0.4,79.5,0.6c16.5,0.1,33.1,0.4,49.6,0.6c34.9,0.2,69.7,0.5,104.6,0.6c54.5,0.2,109,0.4,163.4,0.6
		c48.6,0.2,97.1,0.4,145.7,0.6c23.4,0.1,46.9,0.4,70.3,0.6c23.1,0.2,46.3,0.4,69.4,0.6c2.9,0,5.9-0.4,8.8-0.4
		c10.2,0.1,20.5,0.4,30.7,0.4c14.7,0,29.3-0.3,44-0.5c0.8,0,1.6-0.2,2.4-0.3c-0.5-0.7-1-0.9-1.5-1c-6.8-0.4-13.5-1-20.3-1
		c-24.3-0.3-48.7-0.5-73-0.6c-51.9-0.2-103.8-0.4-155.7-0.6c-36.4-0.2-72.9-0.4-109.3-0.6c-30.3-0.2-60.7-0.4-91-0.6
		c-20.1-0.2-40.2-0.5-60.3-0.6c-22.4-0.1-44.7,0-67.1-0.1c-1.1,0-2.3,0-3.4,0c0.3-0.8,0.6-1.1,1-1.3c6.3-3.6,13.2-6.5,18.8-11
		c5.6-4.6,11.4-6,18.2-5.4c1.4,0.1,2.7,0.2,4.5,0.3c-3.1,4.1-8,5.4-9.9,9.8c3.8-2.5,7.2-5.5,10.7-8.4c0.7-0.6,1.5-1.5,2.4-1.5
		c2.6-0.2,5.3-0.1,7.9-0.1c0,0.2,0,0.4,0,0.6c-1.9,0.4-3.8,0.9-5.7,1.3c0,0.3,0.1,0.6,0.1,0.9c7.3-2.7,14.5-0.6,21.6,0.7
		c0-0.3,0.1-0.5,0.1-0.8c-0.9-0.5-1.9-0.9-3-1.5c4.5-1.4,65.3-2.7,67.1-0.9c-28.3,2.1-56.6,4.3-84.6,6.4c0.5,0.1,1.4,0.3,2.7,0.6
		c-1,0.5-1.4,0.8-2.6,1.5c5.6-0.3,10.3-0.5,15-0.8c13-0.9,25.9-1.9,38.8-2.8c7.7-0.6,15.3-1.3,23-1.6c5.5-0.2,11.6-2.1,15.7,3.7
		c0,0.1,0.3-0.1,0.5-0.1c-0.7-1.2-1.5-2.4-2.4-3.8c1-0.3,1.5-0.5,2.1-0.5c13.7-0.6,27.3-1.6,41-1.6c13.8,0,27.5,1,41.3,1.5
		c10.9,0.3,21.9,0.5,32.8,0.7c15.3,0.2,30.5,0.4,45.8,0.6c11.7,0.1,23.5-0.2,35.2,0.2c16.1,0.5,32.2,1.4,48.3,2.4
		c13.1,0.9,26.1,2.2,39.1,3.4c2.1,0.2,4.2,0.4,6.3,0.6c0-0.2,0-0.4,0.1-0.6c-15.2-2.1-30.5-4.1-44.6-6.1c5.6,0,12.4,0,19.1,0
		c0,0,0-0.1,0-0.1c-24.3-1-48.7-2.1-73-3.1c0-0.3,0-0.5,0-0.8c1.3,0,2.6,0,4,0c9.9,0.4,19.8,0.8,29.7,1.2
		c14.4,0.6,28.7,1.2,43.1,1.8c6.9,0.3,13.8,0.7,20.6,1.2c1.4,0.1,2.9,0.6,4,1.4c6.6,4.8,13.6,8.6,21.5,10.9c0.9,0.3,1.9,0.2,2.8,0.3
		c0.1-0.3,0.2-0.7,0.3-1c-4.6-2.2-9.3-4.3-14.5-6.8c1-0.4,1.5-0.6,1.7-0.7c-2.4-0.9-5.2-1.9-8-3c0.1-0.3,0.2-0.7,0.3-1
		c5.6,0.5,11.3,0.2,16.6,3c2,1,4.2,1.6,6.4,2.3c7.6,2.4,15.5,2.8,23.4,2.3c8.6-0.5,17.1-2.2,24.6-6.6c4.2-2.5,8.5-1.4,12.8-1.2
		c-0.9,0.7-1.8,1.1-2.8,1.4c-1.5,0.5-3.1,0.7-4.5,1.5c-0.9,0.5-1.5,1.5-2.2,2.3c1,0.1,2.1,0.4,3.1,0.2c4.9-1.3,9.8-3.3,14.8-3.9
		c6.4-0.8,12.9-0.6,19.4-0.6c11.5-0.1,23.1,0,34.6,0c1.1,0,2.3,0,3.4,0c0,0.3,0,0.6,0,0.8c-6.7,0-13.5,0-20.2,0c0,0.4,0,0.7,0,1.1
		c26.6,0.3,53.2,0.6,79.8,0.9c0-0.1,0-0.2,0-0.3c-11.1-1-22.2-1.9-33.3-2.9C809.8,235.3,815.6,236.1,821.4,232.9z M745.7,114
		c-4.2-1.7-8.3-3.7-12.4-5.5c0.2-0.5,0.4-0.9,0.6-1.4c4.7,1.6,9.4,3.3,14,4.9c0,0.3,0,0.7,0,1C747.2,113.4,746.2,114.2,745.7,114z
		 M767.1,124.4c-5.1-2.4-9.5-4.5-13.8-6.7c-0.6-0.3-0.8-1.6-1.1-2.4c0.8-0.2,1.8-0.7,2.5-0.5c3.7,1.3,7.3,2.8,11,4.1
		C768.5,120,766.9,121.9,767.1,124.4z M809.4,140c-5.2-1.1-10.6-1.7-15.5-3.4c-5.9-2.1-11.4-5.2-17.2-7.6c-3.2-1.3-3.8-3.5-3.1-6.9
		c12.4,5.3,24.9,9.8,36.3,16.7C809.6,139.2,809.5,139.6,809.4,140z M805.2,188.2c-0.3-0.3-0.6-0.5-0.9-0.8c1.9-2,3.7-4,5.6-6
		c0.2,0.2,0.4,0.4,0.6,0.6C809.4,184.6,808.1,187.1,805.2,188.2z M804.8,181.6c-0.2-2.4,3.7-6,7.7-6.2
		C809.9,177.5,807.4,179.5,804.8,181.6z M814.5,190.3c0.4,8.1,0.7,16.3,1.1,24.4c0.1,2.2-0.6,2.8-2.7,2.4c-5-0.9-6-2.1-6.1-7.2
		c-0.1-3.4-0.6-6.8-0.6-10.3c0-2,0.1-4.2,0.9-5.9c1.8-3.9,4.1-7.5,6.5-11.9C814,185.1,814.4,187.7,814.5,190.3z M801.1,168.4
		c3.4-0.7,6.9-1.1,10.8-1.8c0.2,1,0.8,2.3,0.7,3.6c0,0.9-0.8,2.4-1.3,2.4c-2.6,0.2-5.4,1.2-8-0.5c-0.4-0.2-1.1,0.1-1.5-0.1
		c-1.2-0.5-2.3-1.2-3.5-1.8C799.3,169.6,800.1,168.6,801.1,168.4z M44.3,203.2c-2.6-2.1-5.2-4.3-7.8-6.4c0.2-0.4,0.3-0.7,0.5-1.1
		c1.2,0.4,2.8,0.5,3.5,1.3c1.6,1.8,2.8,3.9,4.1,5.9C44.5,203,44.4,203.1,44.3,203.2z M63,195.5c-0.5,0-0.9-0.3-1.4-0.5
		c-2.4-0.9-4.3-3.2-7.4-1.2c-1.1,0.7-3.6-0.7-5.4-1.4c-2-0.9-3.1-0.4-3.4,2.3c-1.1-1.1-2-1.9-3.1-2.9c0.1,0.9,0.2,1.7,0.3,2.4
		c-0.2,0.2-0.4,0.4-0.6,0.5c-1.7-1.5-3.4-3-5.7-5.1c0.6,1.8,1,2.8,1.4,3.9c-3.8,0.7-6.3-1.1-9-6.5c1.8,0,3.5,0,5.2,0
		c9.1,0,18.3,0,27.4,0.1c2.5,0,5.1,0.4,7.6,0.7c2.3,0.2,3.8,1.3,3.9,3.9c0,1.2,0.5,2.5,0.8,3.9C70,195.5,66.5,195.5,63,195.5z
		 M75.8,157c0.5-3.3,1.2-6.6,2.3-9.7c6.8-18.6,18.8-32.8,36.4-42c10.8-5.6,22.4-8.6,34.2-8.2c31.5-0.7,60,19.3,70.9,49
		c3.3,8.8,4.7,18.1,4.4,27.5c-0.1,2.4-0.8,3.3-3.3,3.3c-2.7-0.1-4.1-1.7-3.1-3.7c1.9-3.8,0-7.2-0.6-10.6
		c-1.7-10.6-5.1-20.7-11.7-29.3c-3-4-6.5-7.6-10-11.2c-1.4-1.5-1.7-2.7-0.5-4.4c0.5-0.8,0.7-1.8,0.9-2.7c0-0.3-0.7-1-0.9-0.9
		c-0.8,0.3-1.9,0.7-2.4,1.3c-1.3,2.1-2.4,2.2-4.5,0.8c-21-13.8-43.2-15.8-66.3-5.7c-0.3,0.1-0.5,0.3-0.8,0.4
		c-7.4,1.5-12.3,7.2-17.3,11.9c-5.2,4.9-9.6,11-13.2,17.2c-3.1,5.4-4.5,11.7-6.6,17.6c-0.8,2.3-2.6,3.4-5.8,3
		C76,160.4,75.5,158.6,75.8,157z M94,198.3c-2.7-0.1-4.2-1.2-4.9-3.7c0-0.2-0.1-0.4-0.2-0.6c-2.1-6.2-2.1-6.2,4.4-7.1
		c-0.8-0.2-1.7-0.6-2.5-0.5c-3.1,0.4-4.3-1.2-4.4-4c-0.1-2.3-0.4-4.5-0.6-6.8c-0.1-1.7,0.8-2.3,2.4-2.2c11.1,0.8,22.1,1.6,33.3,2.6
		c-9.3,0.8-18.6,1.7-27.9,2.5c4.2,0,8.2,1.4,12.5,0.2c2.7-0.8,5.7-0.2,8.5-0.7c6.2-1,12.4-2.4,18.5-3.6c0.8-0.2,1.7-0.7,2.3-0.5
		c1.6,0.7,3.2,1.6,4.5,2.8c0.2,0.2-0.9,2-1.5,3c-2.1,3.5-4.3,6.9-6.3,10.5c-5.8,10.4-11.6,20.8-17.2,31.3c-1,1.9-2.1,2.3-3.7,1.2
		c-8-5.7-14.8-12.6-19.1-21.6c-0.2-0.3-0.1-0.8-0.2-1.6c5.5,0,10.8,0,15.7,0C103.3,199.2,98.7,198.5,94,198.3z M202.2,135.4
		c-1.5-1.5-3.1-2.9-4.5-4.4c-2.6-2.9-4.4-3.4-7.7-2.1c0.7-1.8,1.4-3.6,2.6-6.4c4,4.4,7.3,8.2,10.7,12
		C203,134.7,202.6,135.1,202.2,135.4z M214.2,162c-0.2,0.3-0.4,0.5-0.6,0.8c-6.2-4.5-12.3-9-18.5-13.6c0.2-0.2,0.3-0.4,0.5-0.6
		C201.9,153.1,208.1,157.5,214.2,162z M213.6,166.4c-10.9-7.4-21.8-14.8-32.7-22.2C192.9,150,203.7,157.6,213.6,166.4z M172.2,168.2
		c4.4,0.6,8.3,1.2,12.5,1.8C180.9,171.4,174,170.6,172.2,168.2z M182.9,174c-2.6,0.2-5.2,0.4-7.8,0.5c0-0.4,0-0.8-0.1-1.2
		c2.6,0,5.2,0,7.9,0C182.9,173.5,182.9,173.7,182.9,174z M166.7,152.1c-1-3.7,6.3-14,10.9-15.3C173.9,142,170.3,147,166.7,152.1z
		 M170.4,156.6c3.4,1.9,7,3.7,10,7.5c-5.1-0.4-8-3.3-11.1-5.5c-0.3-0.2-0.6-1.2-0.4-1.5C169.2,156.8,170.1,156.4,170.4,156.6z
		 M169.8,128.7c-4.6-3.1-9.2-6.3-13.8-9.4c0.2-0.3,0.4-0.6,0.6-0.8c4.6,3.2,9.2,6.3,13.7,9.5C170.2,128.1,170,128.4,169.8,128.7z
		 M166.5,158.4c2.2,1.7,4.1,3.2,6.4,5.1C166.8,164.2,165.6,163.3,166.5,158.4z M173.1,151.8c3.1-0.3,15.3,7.3,20.3,12.2
		c-0.2,0.3-0.4,0.6-0.6,0.9C186.4,160.7,180,156.4,173.1,151.8z M176.3,149.2c0-0.3,0.1-0.5,0.1-0.8c1,0.1,2.2-0.1,2.9,0.4
		c7.3,5,14.6,10.2,21.9,15.3c-0.3,0.4-0.6,0.8-0.8,1.3C192.3,159.9,184.3,154.5,176.3,149.2z M196.9,158.2c0.2-0.2,0.4-0.4,0.5-0.6
		c2.9,2.1,5.8,4.2,8.7,6.3c-0.2,0.3-0.4,0.6-0.6,0.9C202.6,162.6,199.7,160.4,196.9,158.2z M184.5,139.9c-0.2-0.2-0.3-0.4-0.5-0.5
		c1.1-1.6,2.2-3.2,3.6-5.3c0.4,1.6,0.6,2.6,0.9,3.7C187.1,138.4,185.8,139.2,184.5,139.9z M181.4,125.6c-0.4,0.3-1.8-0.4-2.6-1
		c-3.4-2.4-6.6-5-10-7.3c-0.7-0.5-1.8-0.6-2.7-0.8c-1.2-0.3-2.6-0.3-3.7-0.8c-1.4-0.6-2.7-1.6-4.1-2.3c-0.6-0.3-1.4-0.3-2.2-0.4
		c0,0.8,0,1.6,0,2.7c-3.7-3.5-7.8-2.3-10.6-1.4c-4.1-0.2-7-0.2-9.8-0.5c-1.7-0.2-3.3-0.7-5.3-0.4c1.1,0.8,2.2,1.7,3.3,2.4
		c10.2,7.2,20.4,14.4,30.6,21.7c0.7,0.5,1,1.6,1.5,2.5c-0.9-0.3-2-0.3-2.7-0.8c-9.9-6.9-19.8-13.9-29.7-20.9
		c-1.2-0.8-2.4-1.4-3.6-2.2c-0.2,0.3-0.4,0.7-0.6,1c11.7,8.3,23.4,16.6,35.1,24.9c-0.1,0.2-0.2,0.3-0.3,0.5c-1.2-0.7-2.5-1.2-3.7-2
		c-9.9-6.6-19.8-13.3-29.7-19.9c-1.7-1.1-3.5-2.2-5.4-3c-1.1-0.4-2.5-0.1-3.8,0.3c-3.4-2.1-3.2-3,0.5-4.8
		c13.1-6.4,26.8-7.5,40.9-4.8c8.5,1.6,16.7,4.7,23.8,10c0.5,0.3,0.9,0.8,1.7,1.5C186,121.8,183.8,123.9,181.4,125.6z M146.6,150.1
		c-5.1-2.3-17.9-17.5-19.1-22.6C131.3,129.5,144.3,145,146.6,150.1z M132,124.6c0.2-0.2,0.4-0.4,0.6-0.5c0.8,0.7,2.3,1.3,2.3,2
		c0.2,2.9,2.5,3.8,4.4,5.1c4.8,3.5,9.6,7,13.8,10.2c-2.3-0.2-5-0.5-7.7-0.8c-0.6-0.1-1.3-0.6-1.7-1.1c-3.7-4.2-7.3-8.5-10.9-12.8
		C132.4,126.1,132.3,125.3,132,124.6z M145.1,167.4c-1.9-1.7-3.5-3-5.3-4.6C144.6,161.4,145.4,162.1,145.1,167.4z M149.2,174.9
		c0.7,0.9,1.3,1.6,2.3,2.9c-2.8,0.8-5.1,1.4-7.4,2.1c-0.1-0.3-0.2-0.5-0.3-0.8C145.4,177.8,147.2,176.5,149.2,174.9z M149.1,141.8
		c3.9,2.5,7.1,4.5,10.3,6.6c0.2-0.2,0.4-0.5,0.6-0.7c-0.7-0.9-1.3-1.7-2-2.6c3,1,3.2,1.4,3.1,4.4c0,1.1,0.8,2.2,1.1,3.3
		c0.3,1.1,0.3,2.3,0.5,3.4c-1,0-2,0.3-2.9,0c-2.1-0.6-4-1.4-6.2-2.2c0.2-0.7,0.4-1.3,0.6-1.9c0.6-1.8,2.3-3.6-1.8-3.7
		C150,148.3,149.4,145.2,149.1,141.8z M162.2,173.9c0.2,0.1,0.3,0.3,0.5,0.4c-1.5,1-3,2.4-4.7,2.9c-2.6,0.7-5,0-6.5-2.4
		C155.2,174.5,158.7,174.2,162.2,173.9z M128.1,143c-6.6-4-12.1-10.4-19.4-14.2c-0.3,0.4-0.7,0.8-1,1.2c2.5,2.2,5,4.4,7.6,6.6
		c-0.1,0.1-0.2,0.2-0.2,0.3c-2.6-1.6-5.2-3.2-7.8-4.7c-0.3,0.4-0.5,0.8-0.8,1.2c10.9,8.6,21.8,17.3,32.7,25.9
		c-0.2,0.3-0.5,0.6-0.7,1c-2.4-1.7-4.8-3.3-7.2-5c-8.2-6.3-16.4-12.6-24.6-18.9c-0.9-0.7-2.1-1.1-3.5-1c8.8,8.2,18.3,15.5,28,22.5
		c-0.2,0.3-0.4,0.6-0.6,0.9c-9.3-7-18.6-13.9-28.3-21.2c0.5,3.2,2.4,4.8,12.8,12.3c4.7,3.4,9.3,6.8,14,10.2
		c-0.1,0.3-0.3,0.5-0.4,0.8c-1.4-0.6-2.8-1.1-4-1.9c-6.7-4.8-13.4-9.7-19.9-14.8c-2.6-2.1-5-3.7-8.7-1.7c-0.3,0.5,1.1,3-2.6,1.7
		c5.5,6.7,11.6,11.3,17.5,16.1c-6.2-1.5-10.1-6.9-15.7-9.5c1.9,4.3,6.3,6.2,9.3,9.9c-1.2,0-2.4,0-3.6,0c-3.9,0-7.9,0-11.8,0
		c-2.1,0-2.8-0.9-2.4-2.9c2.2-9.8,6.5-18.6,12.9-26.3c3.1-3.8,6.8-7,10.4-10.4c1.1-1,2.6-1.7,3.8-2.6
		C118.6,126.7,123.5,135,128.1,143z M117.1,160c-3.5-0.6-12.6-7.5-18.2-13.8C104.9,150.7,110.9,155.3,117.1,160z M100,143
		c7.7,5.7,15.2,11.2,23.1,17.1C119.8,160.1,102.8,147.3,100,143z M115.3,169c2.3-3,5.5-1.2,8.3-1.5c2.9-0.3,5.8-0.1,9.3-0.1
		c-3.3,3.2-36.3,4.7-42.6,2.1c7.9,0,15.7-3.1,23.6-0.6C114.3,169.1,115.1,169.3,115.3,169z M87.7,161.8c3.2-0.2,6.5-0.2,9.7,0
		c0.9,0.1,1.7,1.1,3.2,2.2c-1.9,0.5-2.8,0.6-3.7,0.9c-1.9,0.6-3.7,1.4-5.6,2.1c-0.9,0.3-1.9,0.9-2.8,0.7c-1.1-0.2-3-0.9-3-1.6
		C85.3,164.4,85.1,161.9,87.7,161.8z M122.7,214.9c1-0.8,1.6-2.2,2.4-3.3c1-1.5,2-2.9,2.9-4.4c0.6-1.2,0.9-2.5,1.4-3.7
		c1.1-2.4,3.4-3.6,5.3-5.3c2.8-2.6,4.9-5.9,7.3-8.9c0.6-0.8,1.4-1.5,2.1-2.3c0.2,0.2,0.5,0.4,0.7,0.6c-3.3,4.9-6.6,9.8-10,14.8
		c-3.3,4.9-6.6,9.7-9.9,14.6c0.3,0.2,0.6,0.5,0.9,0.7c0.4-0.3,1-0.4,1.3-0.8c7.5-10.1,14.9-20.3,22.4-30.4c0.5-0.7,0.9-1.5,1.2-2.3
		c1.6-4.2,4-5.4,9.2-4.1c-1.9,3.3,1.1,7.2-1.7,10.6c-0.5,0.6-0.1,1.9,0.1,2.8c2.7,9.5,6.6,18.4,12.9,26c2,2.4,4.8,4,7.9,6.5
		c-5.3-10.9-12.8-19.8-16.5-30.6c0.3-0.2,0.6-0.3,0.9-0.5c1.6,3.2,3.2,6.5,4.9,9.7c1.8,3.3,3.6,6.6,5.6,9.7c2,2.9,2.8,6.8,6,8.8
		c0.3-0.2,0.6-0.4,1-0.5c-1.9-3.5-3.8-7-5.7-10.6c0.2-0.1,0.4-0.2,0.5-0.4c1,1.5,2.1,2.9,3.1,4.4c0.1,0,0.2-0.1,0.4-0.1
		c-0.4-1.4-0.7-2.7-1.1-4.1c0.2-0.1,0.3-0.1,0.5-0.2c1.4,2.4,2.9,4.7,4.3,7.1c0.4-0.2,0.7-0.4,1.1-0.6c-6.6-13.4-13.2-26.9-20.1-41
		c0.6-1,1.6-3.1,2.8-4.9c1.1-1.5,4.3-0.3,4.7,2.1c0.6,4,2.8,4.2,6.2,4.2c11.4-0.1,22.8,0.3,34.2,0.5c2.2,0,2.6,0.9,2.3,3
		c-1.9,12.2-6.5,23.3-14.8,32.3c-6.8,7.4-15,13.4-24.7,17.2c-9.9,3.9-20.1,5.7-30.6,4.6c-9.8-1-19.3-3.6-28-9.5
		C118.1,222.4,118.9,217.9,122.7,214.9z M212.8,176.1c-7.1,0.2-14.1,0.1-21.2,0.1c0-0.3,0-0.6,0-0.9c6.7-1,13.4-2.1,20.1-2.9
		c0.9-0.1,1.9,1,2.8,1.5C213.9,174.7,213.4,176.1,212.8,176.1z M77.7,183.9c-0.7-6.6-1.2-13.3-1.2-19.9c0-2.8,3-1.8,4.8-1.7
		c0.5,0,1.4,1.6,1.4,2.4c0,2-0.2,4.1-0.6,6.1c-0.2,0.8-0.9,1.5-1.4,2.4c1.4,0.4,1.9,0.9,1.7,2.8c-0.3,2.2,0.8,4.5,1,6.7
		c0.1,0.9-0.5,2.6-1,2.7C80.6,185.9,78,186.5,77.7,183.9z M79.1,191c-0.2-1.2-1.6-2.9,0.6-3.3c1.8-0.3,4.3-1,5.2,1.8
		c0.5,1.6,1.1,3.2,1.6,4.7c1.1,3,0.8,3.4-2.7,3.4c-2.2,0.4-3.3-0.9-3.8-3.2C79.8,193.3,79.3,192.2,79.1,191z M82.4,206.4
		c-0.7-1.3-1.3-2.7-1.5-4.3c0.6,0.8,1.1,1.7,1.7,2.5c0.2-0.1,0.3-0.2,0.5-0.3c-0.4-1.6-0.9-3.1-1.3-4.7c3.8-1.3,6.5-0.2,8.3,2.8
		c3,5.2,6.1,10.3,9.3,15.3c0.7,1.1,2.2,1.7,3.2,2.9c-3.4,0-6.4-1-9-3.3c-0.6-0.5-1.1-1.4-1.7-1.5C86.2,215.2,84.6,210.5,82.4,206.4z
		 M175.3,249c-4.2-0.1-8.4,0-12.6,0c0-0.4,0-0.9,0-1.3c5,0.3,9.5-4,14.9-0.9C177.9,248.2,177.3,249,175.3,249z M214.4,209.5
		c-2.3,4.1-5.1,8-8.1,11.6c-1.6,2-4.1,3.2-6.2,4.8c-2.9,2.2-5.6,4.6-8.6,6.6c-3.4,2.3-7.2,4-10.6,6.3c-8.4,5.7-17.9,8-27.8,8.3
		c-19.6,0.5-37.4-4.8-52.5-17.7c-3.1-2.6-6-5.5-9-8.3c0.3-0.4,0.5-0.8,0.8-1.2c5.1,1.2,10.4,1.1,15.2,4.4c6.4,4.5,13.3,8.3,20.3,12
		c2.5,1.3,5.7,1.4,8.6,1.7c4.7,0.6,9.4,1.4,14,1.4c17.8-0.1,33.4-6.4,45.9-19.1c5.4-5.5,9.7-12.1,13.7-18.7c2.1-3.5,4-5.6,8.3-4.5
		C219.8,202.1,216.6,205.7,214.4,209.5z M220.5,193.9c0,0.3,0,0.6,0,0.9c-2.1,0.1-4.2,0.2-6.7,0.4c1-4.4,1.9-8.1,2.8-11.9
		c0.2-0.8,0.4-1.5,0.4-2.3c0-3.4,2.5-2.9,4.6-2.9c2.5-0.1,2.5,1.7,2.4,3.4c-0.2,1.9-0.4,3.9-0.8,5.8c-0.7,4-1.2,4.3-5.2,4.3
		c-0.7,0-1.3,0-2,0c-0.1,0.3-0.1,0.6-0.2,0.8C217.3,193,218.9,193.5,220.5,193.9z M228.8,225.4c-2.2-0.9-4.4-1.9-6.6-2.8
		c0.2-0.3,0.3-0.7,0.5-1c2.2,1,4.3,2,6.5,3C229,224.8,228.9,225.1,228.8,225.4z M243.2,226.9c-6.2-3.7-12.4-7.4-18.6-11.1
		c0.2-0.3,0.4-0.6,0.5-0.9c6.2,3.6,12.5,7.3,18.7,10.9C243.7,226.1,243.5,226.5,243.2,226.9z M282.7,215.7c-2.8-1.4-5.5-2.8-8.3-4.2
		c0.1-0.3,0.3-0.5,0.4-0.8c2.7,1.5,5.5,2.9,8.2,4.4C282.9,215.3,282.8,215.5,282.7,215.7z M793.3,215.9c-1.2,1.2-2.4,1.3-3.8-0.3
		C791,214.6,792.3,212.9,793.3,215.9z M796.8,223.8c0,0.1-0.1,0.3-0.1,0.4c-6.8-0.6-13.6-1.2-20.3-1.8c0-0.2,0-0.5-0.1-0.7
		c0.5-0.3,1.1-0.5,1-0.5c-1.1-1.1-2.3-2.3-3.5-3.5c0.2-0.3,0.4-0.7,0.7-1C782,219.1,789.4,221.5,796.8,223.8z M775.1,207.1
		c0.6,1.4,1.1,2,1,2.4c-0.3,1-1,1.8-1.5,2.7c-0.4-0.6-1.1-1.2-1-1.8C773.7,209.6,774.3,208.7,775.1,207.1z M770.5,216.5
		c0.3,0,0.7,0.1,1,0.1c0.1,1.4,0.2,2.8,0.2,4.2c-0.3,0.1-0.6,0.1-0.9,0.2c0.6,0.2,1.1,0.4,1.7,0.6c0,0.2-0.1,0.4-0.1,0.6
		c-1.2-0.2-2.5-0.4-4.1-0.6C769.2,219.6,769.9,218,770.5,216.5z M761.1,212.3c1.8,0.5,3.7,0.9,5.3,1.8c0.7,0.4,1.5,1.9,1.3,2.5
		c-0.6,1.8-1.3,3.9-2.7,4.9c-1.1,0.8-3.2,0.1-4.9,0c-5.1-0.3-10.2-0.7-15.3-0.9c-4.5-0.2-4.8-0.5-3.7-4.7c0.6-2.5,1.2-5,1.9-8.3
		C749.2,209.2,755.2,210.7,761.1,212.3z M674.2,103.1c7.1,1.5,14.3,3,21.4,4.5c-0.1,0.4-0.1,0.7-0.2,1.1c-7.2-1.5-14.3-3.1-21.5-4.6
		C674,103.7,674.1,103.4,674.2,103.1z M652.7,105.8c0.7-0.3,1.3-0.9,2-0.9c4.3-0.1,8.7-0.7,12.9,0.1c12.4,2.3,24.7,4.8,36.9,8
		c4.1,1.1,7.8,4.1,11.2,6.9c16.1,12.9,24.8,29.8,26.6,50.2c0.5,6.3-0.4,12.7-0.9,19.1c-0.1,0.8-1.2,2.1-1.7,2.1
		c-1.1-0.2-2.6-0.8-3-1.7c-0.6-1.6-0.8-3.5-0.6-5.2c1.7-14.9-1.5-28.8-9.3-41.5c-0.8-1.3-1.9-2.4-3.4-3.3c2.3,4.8,4.5,9.7,6.8,14.5
		c-0.3,0.2-0.6,0.5-0.9,0.7c-2.1-1.9-4.3-3.7-7-6.1c1.6,0.1,2.3,0.2,3.8,0.3c-1.8-5.5-6.4-7.7-10.4-9.9c-2.3-1.3-5.5-0.8-8.6-1.2
		c1.5-2.5,3.1-5.5,4.9-8.3c0.2-0.3,1.6,0,2.2,0.4c1.3,0.8,2.5,1.9,3.7,2.9c-3.3-6.9-9.6-10.4-15.7-14.1c-9.8-5.8-20.5-8.9-31.8-8.8
		c-23.7,0.2-42.7,10.2-56.4,29.8c-0.6,0.9-1.3,1.8-2.2,2.9c-0.8-1.7-1.8-2.9-2-4.3c-0.3-1.3-0.3-3,0.3-4c8.6-11.9,19.8-20.7,33.6-26
		c2-0.7,4.2-0.6,6.3-1.1C651.1,106.8,651.9,106.3,652.7,105.8z M740.2,195.3c-0.7,0.7-1.6,2.1-2.2,1.9c-1.5-0.3-3.9,0.5-4-2.2
		c0-0.7,1-1.5,1.9-2.7C737.6,193.6,738.9,194.4,740.2,195.3z M729.1,188.7c-8.5-2.2-17-4.4-25.6-6.1c-5.6-1.1-11.4-1.6-17.2-2.2
		c-1.4-0.2-2.1-0.4-2.1-2.1c0.1-1.6-0.3-3.2-0.7-5.8c2,1.1,3.9,1.5,4.8,2.7c2.8,3.6,6.5,4.7,10.6,4.7c-4.1-3-8.3-6.2-12.6-9.1
		c-2.9-1.9-1.6-3.2-0.2-5.1c1.6-2.1,2.7-1.9,4.5-0.3c5.9,5.1,11.9,10,17.8,15c0.4,0.3,0.8,0.5,1.6,0.2c-6.8-6.2-13.7-12.5-20.5-18.7
		c0.3-0.3,0.5-0.6,0.8-0.9c8.1,7,16.1,14.1,24.2,21.1c0.2-0.3,0.5-0.5,0.7-0.8c-7.9-7.4-15.7-14.7-23.6-22.1c0.3-0.4,0.7-0.7,1-1.1
		c8.9,8,17.8,15.9,26.7,23.9c0.2-0.2,0.4-0.4,0.6-0.6c-8.5-8.3-17.1-16.6-25.6-24.8c0.2-0.2,0.3-0.3,0.5-0.5
		c9.6,8.6,19.2,17.2,27.5,24.7c-6.4-6.8-14-14.9-21.7-23.1c8.7,7.2,17.3,14.3,25.9,21.4c0.2-0.3,0.5-0.6,0.7-0.9
		c-9.8-8.6-19.6-17.2-29.4-25.8c0.2-0.3,0.4-0.6,0.7-0.8c11.3,8.1,21,18.3,32.9,25.7c0.2-0.3,0.4-0.5,0.7-0.8
		c-10.9-9.1-21.8-18.1-32.7-27.2c0.3-0.4,0.5-0.7,0.8-1.1c1.1,0.8,2.3,1.4,3.4,2.3c9.6,7.7,19.2,15.3,28.8,23
		c0.8,0.7,1.7,1.9,1.7,2.8c0,3.1-0.4,6.3-0.7,9.4C733,188.6,731.8,189.4,729.1,188.7z M730.6,193.2c-0.5,2-2.3,2.1-4.1,1.6
		c-9.2-2.4-18.4-4.9-27.6-7.4c-2.3-0.6-4.5-1.5-6.7-2.3c0.1-0.3,0.1-0.6,0.2-0.9c3.9,0.6,7.8,1,11.7,1.8c7.8,1.6,15.6,3.3,23.3,5.1
		C728.6,191.4,730.7,192.8,730.6,193.2z M654.5,166.8c-0.2,0.3-0.5,0.6-0.7,0.9c-9.9-7-17.7-16.4-27.5-23.6
		c-0.3,0.3-0.5,0.6-0.8,0.9c5.9,5.5,11.8,10.9,17.8,16.4c-7.1-4.4-12.1-11.3-19.7-15.1c5.9,7.2,13.1,12.9,19.7,19.4
		c-8.3-5.3-14.6-13.2-22.6-18.8c-0.3,0.3-0.6,0.6-0.8,1c6,5.6,12,11.2,18.1,16.8c-0.2,0.2-0.4,0.5-0.6,0.7
		c-6.3-5.6-12.5-11.1-18.8-16.7c-0.3,0.3-0.5,0.6-0.8,0.9c4.8,4.8,9.6,9.6,14.4,14.4c-0.3,0.3-0.6,0.6-0.8,1
		c-2.2-1.9-4.4-3.8-6.7-5.7c-2.2-1.7-3.5-4.7-6.7-5c-0.3,0.3-0.6,0.6-0.9,0.9c2.5,2.6,5,5.2,7.6,7.8c-4,0-5.3-4.3-8.5-5.5
		c-0.2,0.2-0.4,0.3-0.6,0.5c1.1,1.4,2.2,2.9,3.5,4.6c-3.1-0.2-6-0.3-8.8-0.6c-0.6-0.1-1.4-1.2-1.4-1.8c0.3-2.5,0.4-5.2,1.3-7.5
		c5.6-14.1,15.2-24.7,28.3-32.2c0.3-0.2,0.7-0.2,1.5-0.5c0.8,2.1,1.4,3.9,2.1,5.7c0.2,0,0.4,0,0.7,0c0-1.8-0.2-3.6,0.1-5.4
		c0.1-0.9,1-1.6,1.5-2.5c0.3,0.9,1.1,1.8,1,2.6c-0.4,2.5-1.1,4.9-1.6,7.4c-0.1,0.5-0.2,1.5,0.1,1.7c3.6,2.5,2.9,6.9,4.4,10.3
		c2.6,6.1,4.8,12.5,7.1,18.8c0.1,0.3,0.2,0.7,0.4,2c-8.4-7.4-16.3-14.3-24.2-21.2c-0.3,0.3-0.5,0.6-0.8,0.8
		c9.9,9.3,19.9,18.5,29.8,27.8c-0.3,0.3-0.6,0.7-0.9,1c-10.5-9.5-21-19-31.5-28.5c-0.2,0.2-0.4,0.5-0.7,0.7
		C636.3,149.6,645.4,158.2,654.5,166.8z M649.7,174.7c-3.4,1.4-6.9,0.7-8.8-1.9C644.1,173.5,646.7,174,649.7,174.7z M599.1,167.3
		c0-0.2,0-0.3,0-0.5c0.6-0.1,1.3-0.2,2.4-0.4c-1.7-0.9-2.6-1.4-3.6-1.9c0.1-0.4,0.2-0.7,0.2-1.1c1.7,0.1,3.7-0.2,5,0.6
		c0.7,0.4,0.1,2.8,0.1,4.8C601.5,168.2,600.3,167.7,599.1,167.3z M599.4,160.6c-0.4-0.3-0.6-1.1-0.5-1.5c1.6-6.6,3.8-13,7.7-19.1
		c1.3,2,2.4,3.5,3.3,5.2c0.3,0.6,0.1,1.5-0.1,2.2c-1.4,3.8-2.9,7.5-4.3,11.3C604.7,160.7,601.1,161.9,599.4,160.6z M610.3,121
		c-0.1,0.3-0.1,0.6-0.2,0.9c-7.6-1.1-15.4-1.4-22.6-5C595.1,118.3,602.7,119.7,610.3,121z M600.2,117.1c0-0.2,0.1-0.4,0.1-0.5
		c4,0.7,7.9,1.3,11.9,2c-0.1,0.2-0.1,0.5-0.2,0.7C608.1,118.6,604.1,117.8,600.2,117.1z M608.7,165.4c1,0.9,2,1.9,3,2.8
		c-0.3,0.3-0.6,0.7-0.9,1c-1-0.8-2-1.6-2.9-2.5C607.8,166.6,608.4,165.8,608.7,165.4z M653.4,143.6c-1.1-2.6-1.6-5.4-2.5-8.3
		c5.3,9.4,10.6,18.6,16,28.1c-3,0.9-4.8-0.6-5.8-2.6C658.4,155.2,655.8,149.4,653.4,143.6z M653.9,127.2c-1-2.1-2.4-4.1-4-5.8
		c-2.1-2.2-1.7-5.6,1.3-6.5c3.2-1,6.5-1.7,9.8-2.1c17-2.3,32.4,1.6,46.4,11.4c0.5,0.3,0.9,0.8,1.5,1.3c-0.6,0.5-1.1,1-1.6,1.3
		c-4.5,2.4-8.3,5.5-11.1,9.7c-1,1.5-2.1,2.1-3.9,0.7c-5.3-4-10.8-7.8-16.2-11.7c-1.7-1.2-3.5-2.5-5.5-3.3c6.7,6.7,14,12.7,21.4,18.9
		c-1.4-0.6-3-1.1-4.2-2c-6.9-5.4-13.7-11-20.5-16.5c-0.8-0.6-1.7-1.2-2.6-1.8c-0.2,0.3-0.4,0.5-0.6,0.8c8.4,7.1,16.8,14.3,25.1,21.4
		c-0.1,0.3-0.2,0.6-0.3,0.9c-0.9-0.4-2-0.7-2.7-1.3c-8-6.7-15.9-13.5-23.8-20.3c-0.7-0.6-1.5-1.1-2.7-1.1c9,8.7,17.8,17.6,28,25
		c-0.2,0.3-0.3,0.7-0.5,1c-1.3-0.6-2.8-1-3.9-1.9c-3.9-3.3-7.7-6.8-11.5-10.1c-3.6-3.2-7.2-6.4-10.9-9.5c-0.6-0.5-1.4-0.8-2.1-1.3
		c-0.2,0.2-0.4,0.5-0.6,0.7c7.7,7,15.4,13.9,23.1,20.9c-0.2,0.2-0.4,0.5-0.6,0.7c-7.5-6.7-14.9-13.3-22.4-20
		c-0.3,0.3-0.5,0.6-0.8,0.9c8.9,8,17.7,16.1,26.6,24.1c-9.8-5.9-17.4-14.5-26.2-21.5c-0.2,0.2-0.5,0.4-0.7,0.6
		c0.5,0.7,0.9,1.5,1.5,2c7.4,6.7,14.8,13.3,22.1,19.9c1,0.9,2.5,1.7,0.7,3.2c-0.7,2.6-1.8,4.6-5,5c-1.3,0.1-2.5,1.6-3.8,2.5
		c0.2,0.3,0.4,0.6,0.6,0.9c1.5-0.9,3-1.8,4.4-2.7c0.1,0.1,0.3,0.3,0.4,0.4c-0.4,0.7-0.8,1.6-1.4,2.1c-1,0.9-2.2,1.5-3.4,2.3
		c-0.5-1.1-1-2.3-1.5-3.4c-0.6-1.1-1.3-2.2-1.8-3.3C664.8,149,659.4,138.1,653.9,127.2z M729.7,163.1c1,0.8,2.8,1.3,3.1,2.3
		c0.7,2.2,0.7,4.7,1,7.1c-0.2,0.1-0.5,0.1-0.7,0.2c-10.6-8.6-21.3-17.2-31.9-25.8c0.1-0.3,0.1-0.6,0.2-0.8c0.8,0.2,1.7,0.2,2.3,0.7
		c5.1,4,10.1,8.1,15.2,12.1c3.7,3,7.3,5.9,11,8.9c0.7,0.6,1.5,1,2.3,1.4c0.3-0.4,0.6-0.8,0.9-1.2c-10-8-20-16-30-23.9
		c0.2-0.3,0.5-0.6,0.7-0.9c3.3,2.6,6.5,5.1,9.8,7.7C719,154.9,724.3,159,729.7,163.1z M726.5,155.6c2.2,1.7,3.9,3.1,5.6,4.4
		c-0.3,0.3-0.6,0.6-0.9,0.8C729.8,159.3,728.3,157.7,726.5,155.6z M704.6,141.6c3-0.9,17.1,10.2,20.5,15.8
		C718.3,152.2,711.4,146.9,704.6,141.6z M686.6,156.2c0.2,0.2,0.4,0.3,0.6,0.5c-3,3.5-4,8.4-8.1,11.1c-0.3-0.2-0.6-0.5-1-0.7
		C681,163.5,683.8,159.8,686.6,156.2z M627.3,106.9c0-0.8,0.9-2.3,1.4-2.3c3.6,0.2,7.1,0.7,10.7,1.1c0,0.2,0.1,0.4,0.1,0.7
		c-3.6,2-7.3,3.9-11.1,6C628,110.3,627.4,108.6,627.3,106.9z M649.1,102.3c-2.8,1.7-5.5,2.5-8.7,1.8c-5.9-1.3-12-1.9-18-2.9
		c-0.9-0.1-1.9-0.4-2.7-1.2C629.5,100.8,639.3,101.5,649.1,102.3z M625.1,114.7c-2.3,1.8-4.6,3.6-7.3,5.8
		C618.5,117.2,619.4,116.5,625.1,114.7z M614.5,115.7c0,0.3-0.1,0.7-0.1,1c-6.2-0.9-12.4-1.9-18.6-2.8c0-0.3,0.1-0.6,0.1-0.9
		C602.2,113.9,608.3,114.8,614.5,115.7z M587.8,104.1c2.7,0.4,5.4,0.7,8.1,1.1c-0.1,0.3-0.1,0.6-0.2,0.8c-2.7-0.4-5.3-0.8-8-1.2
		C587.7,104.5,587.8,104.3,587.8,104.1z M571.9,103.9c9.3,1.7,18.6,3.3,27.9,5c0,0.2,0,0.5,0,0.7c-9.4-1.6-18.7-3.1-28.1-4.7
		C571.8,104.6,571.9,104.3,571.9,103.9z M584,108.8c0,0.3-0.1,0.6-0.1,0.8c-3.4-0.5-6.8-1-10.1-1.5c0.1-0.3,0.1-0.7,0.2-1
		C577.3,107.6,580.6,108.2,584,108.8z M559.2,101.9c2.8,0.5,5.6,1,8.4,1.5c0,0.3-0.1,0.5-0.1,0.8c-2.8-0.5-5.6-1.1-8.4-1.6
		C559.1,102.4,559.2,102.1,559.2,101.9z M533.1,108.7c0.5,8.2,0.9,16.5,1.3,24.7c0.1,2.7,0.5,5.3,0.6,7.9c0.1,3-2.1,4.8-5,4.1
		c-5-1.2-9.9-2.4-14.9-3.8c-1.2-0.3-2.3-1.2-3.5-1.5c-1.5-0.4-3.1-0.4-4.6-0.8c-3-0.8-6-1.5-8.8-2.7c-2.4-1-4.4-2.7-6.6-4
		c-0.2,0.3-0.4,0.5-0.6,0.8c0.8,0.9,1.7,1.8,2.5,2.7c-0.1,0.2-0.2,0.4-0.2,0.5c-1.1-0.2-2.2-0.4-3.3-0.7c-6.1-1.7-12-3.6-18.2-5
		c-4.2-1-8.6-1.1-12.9-2c-6.1-1.2-12.2-2.3-18.2-4c-3.3-0.9-6.5-1.9-10.1-2.2c-5-0.3-9.8-2.5-14.8-3.6c-3.7-0.8-7.6-1.3-11.4-1.8
		c-2.3-0.3-4.7-0.4-7-0.9c-13.9-3.2-28.1-5.3-42.2-7.5c-18.1-2.8-36.2-5.3-54.3-7.6c-18.8-2.4-37.7-4.3-56.6-6.5
		c-1.4-0.2-3.7,0.5-3.5-1.9c0.1-0.9,2.2-1.6,3.2-2.2c-0.1,0-0.8-0.2-1.5-0.4c0-0.2,0-0.5,0-0.7c1.8,0.1,3.6,0.2,5.4,0.4
		c0-0.1,0.1-0.3,0.1-0.4c-1.3-0.4-2.6-0.7-3.8-1.2c-0.7-0.3-1.2-0.9-1.8-1.4c0.9-0.4,1.7-1.3,2.5-1.3c4,0.4,8,1.1,12,1.7
		c1.3,0.2,2.6,0.5,3.9,1.3c-2.1,0-4.3,0-6.4,0c0,0.2,0,0.4,0,0.6c3.1,0.3,6.1,0.6,9.2,0.9c13.5,1,27.1,2,40.6,2.8
		c5.8,0.4,11.6,0.5,17.4,0.7c14.7,0.4,29.3,0.8,44,1.3c20,0.6,39.9,1.4,59.9,1.7c19.8,0.4,39.6,0.4,59.4,0.5c2.7,0,5.4,0,8.1,0
		c0.2,0.3,0.4,0.7,0.5,1c-1.8,2.9-3.6,5.9-5.5,8.9c3.4,0.5,4.6,3.7,6.6,6c-1.6-1.4-3.2-2.7-4.8-4.1c-0.3,0.3-0.6,0.5-0.9,0.8
		c1.4,1.8,2.7,3.6,4.1,5.4c-0.1,0.1-0.1,0.2-0.2,0.2c-1.6-1.3-3.1-2.6-5.3-4.4c0,1.7,0,2.4,0,3.7c-1.9-1.3-3.5-2.5-5.2-3.7
		c-0.3,0.3-0.7,0.6-1,0.9c1.7,2.7,3.3,5.5,5,8.2c0,0.1-0.1,0.1-0.1,0.2c-2.1-2.1-4.2-4.1-6.9-6.7c0,1.6,0,2.2,0,2.8
		c-0.9-0.3-1.7-0.6-2.6-0.9c-0.2,0.2-0.4,0.4-0.5,0.5c0.7,1.1,1.2,2.3,2.1,3.2c1.8,2,3.8,3.8,5.5,5.8c0.7,0.9,1,2.2,1.4,3.4
		c-1.1-0.5-2.4-0.8-3.2-1.6c-2.2-2.4-4.2-5-6.3-7.4c-0.6-0.7-1.3-1.3-2-1.9c-0.3,0.2-0.6,0.4-1,0.7c0.5,1.1,0.9,2.2,1.6,3.1
		c2.6,3.2,5.3,6.4,7.9,9.6c1.2,1.4,2.1,1.1,3.4,0c1.8-1.7,3-4.6,6.5-3.8c1.5-5,6.7-7.4,7.6-13c0.8-5.1,3-10,4.8-15.6
		c2.5,0,5.9-0.1,9.3,0c2.9,0.1,5.9,0.4,8.8,0.5C528.7,99.2,532.7,102.9,533.1,108.7z M535.5,165.2c-9.1-7.1-18.2-14.3-27.3-21.4
		c0.1-0.3,0.3-0.7,0.4-1c2.5,1.1,5.4,1.8,7.6,3.4c6.2,4.5,12.2,9.3,18.1,14.1c1.1,0.9,1.6,2.7,2.3,4.1
		C536.2,164.7,535.8,165,535.5,165.2z M535.8,173.2c-14.1-11.2-28.2-22.2-42.2-33.3c3.8,0.4,7.5,1.3,10.7,3.8
		c9.9,7.8,19.8,15.6,29.7,23.3C536.3,168.7,536.5,170.8,535.8,173.2z M535.6,158.1c-5-3.8-9.9-7.5-15.1-11.4
		C528.2,146.3,536.8,152.7,535.6,158.1z M376.3,24.9c0,0.3,0,0.5,0,0.8c-10.5,0-21.1,0-32.1,0c24.6-3.8,48.8-4.8,73.1-1.6
		c-9.7-0.3-19.4-0.8-29.1-0.8c-9.7,0.1-19.4,0.7-29.1,1.6C364.7,24.9,370.5,24.9,376.3,24.9z M367.6,28c4.9-0.2,9.8,0.4,14.8,0.1
		c-0.5-0.2-1-0.3-2.2-0.7c13.7,0,26.6-0.3,39.6,0.2c4.3,0.1,8.6,1.8,12.8,3.3c11,3.7,21.5,8.7,31.5,14.7
		c9.3,5.6,18.7,10.8,28.1,16.3c0.8,0.5,1.5,1.1,2.3,1.6c-0.1,0.2-0.1,0.3-0.2,0.5c-4.2-0.4-8.3-0.8-12.4-1.4c-1.1-0.2-2-1.5-3.1-2.1
		c-1.9-1.1-3.8-2.7-5.8-3.1c-4.5-0.8-9.2-1.3-13.8-1.4c-2.2-0.1-4.4,1-7,1.6c0.1,2.7-0.3,5.2,0.4,7.4c2,6.3,5,8.3,11.8,8.6
		c4.2,0.2,8.4,0.8,12.7,0.8c4.1,0,6.9,2.2,10.4,5c-3.1-0.2-5.6-0.3-8.1-0.6c-15.6-1.5-31.1-3.2-46.7-4.5
		c-14.4-1.2-28.8-2.1-43.3-3.1c-14.9-1.1-29.8-2.2-44.7-3.4c-10.1-0.8-20.2-1.7-30.3-2.4c-5.9-0.4-5.9-0.3-6.9-5.9
		c-0.2-1-0.4-1.9-0.1-3.1c0.6,1.4,1.1,2.9,1.7,4.3c0.2,0,0.4,0,0.6,0c0-1,0-1.9-0.2-2.9c-0.4-2.3-0.9-4.6-1.4-6.9
		c-0.9-4.1-0.3-5.1,4-5c13.2,0.4,26.3,1,39.5,1.6c5.7,0.2,11.4,0.4,17.1,0.7c13,0.7,25.9,1.5,38.9,2.3c10.8,0.6,21.6,1.2,32.4,1.9
		c3.1,0.2,6.3,0.7,9.3,1.3c1.1,0.2,2.1,1.4,3.4,2.3c-0.5-4.1-3.5-4.2-6-4.5c-5.5-0.6-11-0.7-16.4-1.1c-6.7-0.5-13.3-1.2-20-1.6
		c-14.3-0.9-28.7-1.7-43-2.4c-15.8-0.7-31.7-1.2-47.5-1.9c-2.9-0.1-5.9-0.4-8.8-0.8c-2.1-0.3-4.4-0.5-5.1-3.2
		c-0.1-0.3-0.5-0.6-0.8-0.7c-2.8-0.8-5.6-1.7-8.5-2.4c-0.5-0.1-1.4-0.1-1.6,0.2c-2.8,3.7-6.9,1.5-10.4,2.4c-0.4,0.1-1,0-1.2-0.1
		c10.7-4.8,21.6-9.5,34-9.5C334.1,30.1,350.8,28.7,367.6,28z M508.5,86.6c4.9-2,9.8-0.4,12.2,4c0.9,1.6,0,2.8-1.6,2.9
		c-4.1,0.1-8.3,0.3-12.4-0.2c-0.9-0.1-1.6-2.4-2.6-4.1c-0.9-0.5-2.4-1.3-4.5-2.4c2.7-1.3,4.6-1,6.4,0.3c1.6,1.2,3.1,2.4,4.6,3.6
		c0.2-0.2,0.5-0.5,0.7-0.7C510.4,88.8,509.4,87.7,508.5,86.6z M511,65.8c-1.6-0.5-3.3-0.7-4.6-1.5c-7.7-4.4-15.3-9-22.9-13.5
		c-0.1-0.1-0.1-0.3-0.5-1.3c9.9,5.2,19.2,10.1,28.5,15.1C511.3,65,511.1,65.4,511,65.8z M252.8,82.2c1.9-1,3.7-2.3,5.4-3.6
		c0.1-0.1-0.6-1.8-1.2-2c-2-0.8-4-1.2-6.1-1.8c0-0.3,0.1-0.5,0.1-0.8c6,0.6,12,1.3,18,1.9c13.7,1.5,27.4,3.1,41.1,4.6
		c11.1,1.2,22.1,2.4,33.2,3.3c11.7,1,23.3,1.7,35,2.5c11.1,0.8,22.1,1.5,33.2,2.2c5.2,0.3,10.4,0.5,15.6,0.7
		c7.8,0.2,15.5,0.3,23.3,0.7c8.8,0.4,17.7,1.1,26.5,1.6c2.4,0.1,4.9,0,7.4-0.5c-0.8-0.1-1.6-0.4-2.4-0.4c-8-0.6-16.1-1.2-24.1-1.8
		c-1.6-0.1-3.2,0-4.7,0c-5.7-0.1-11.4-0.2-17-0.4c-7.9-0.4-15.9-1-23.8-1.4c-12.3-0.7-24.5-1.4-36.8-2.2c-11-0.7-22-1.6-33-2.5
		c-10.2-0.9-20.4-2-30.5-3.1c-9.4-1-18.9-1.4-28.1-3.5c-11.3-2.6-22.9-1.4-34.8-4.5c1.2-0.1,1.7-0.2,2.1-0.2c0.5,0,1,0.1,1.5,0.2
		c7.7,0.6,15.5,1.1,23.2,1.9c2.4,0.2,4.6,1.3,6.9,1.9c0.6,0.2,1.1,0.3,1.7,0.3c9.4,0.4,18.9,0.7,28.3,1.3c8.9,0.6,17.8,1.4,26.8,2.2
		c11.1,1,22.1,2,33.2,3.1c18,1.7,36,3.6,54,5.1c7.4,0.6,14.8,1.5,22-0.2c-33.1-0.9-66.1-6.5-99.3-9.1c1,0,2.1,0,3.1,0
		c18.2,0.7,36.4,1.5,54.6,2.3c8.6,0.4,17.3,0.8,25.9,1.2c19.7,0.9,39.4,1.8,59.4,3.3c-0.6,0-1.1,0.1-1.7,0.1c0.2,0.3,0.4,0.7,0.6,1
		c0.8,0.1,1.7,0.2,2.5,0.3c3.2,0.3,3.8,1.1,2.8,4.2c-0.9,2.6-2.2,4.2-5.5,4.2c-13,0-26,0.4-39,0.4c-12.9,0-25.8-0.3-38.7-0.6
		c-12.5-0.3-25-0.7-37.5-1.1c-17.1-0.6-34.2-1.2-51.3-1.8c-14.4-0.5-28.7-0.8-43.1-1.9c-10.9-0.8-21.7-2.8-32.6-4.2
		c0-0.4,0-0.8-0.1-1.3C250.2,83.2,251.6,82.9,252.8,82.2z M245.7,79.1c-0.1,0,0.2-1,0.4-1.5c1.1,0.4,2.3,0.9,3.4,1.3
		c-0.2,0.4-0.3,0.8-0.5,1.2C247.9,79.8,246.8,79.5,245.7,79.1z M283.8,45.3c2-1,3.7,1,3.2,3.3c-0.7,3.4-1.2,6.8-2.1,10.1
		c-0.2,0.9-1.3,2.1-2.1,2.2c-3.8,0.2-14.6-1.3-19.5-4.6c3.5-3.5,6.7-6.9,10-10.2c0.6-0.5,1.9-0.4,2.8-0.5
		C278.6,45.3,281.1,46.7,283.8,45.3z M279,41.8c0.1-0.4,0.2-0.8,0.2-1.2c3.2-0.9,5.8,1.6,8.8,1.8c-0.1,0.4-0.1,0.8-0.2,1.2
		C284.9,43.1,282,42.4,279,41.8z M269.6,38.8c-2.4-0.5-5-0.1-7.5-0.1c-0.6,0-1.1-0.1-1.7-0.1c0-0.3,0-0.5-0.1-0.8
		c4.9-0.7,9.8-1.5,14.8-2.2C274,38.4,272.5,39.4,269.6,38.8z M265.9,45c-0.1,1.2,0.1,2-0.3,2.4c-1.6,1.9-3.2,3.7-4.9,5.5
		c-1.4,1.4-2.7,1.3-4-0.2c-1.8-2.3-3.6-4.5-5.7-7.1C263.4,46.9,263.4,46.9,265.9,45z M257.2,62.5c1.4,3.8,4.5,2.3,7,2.2
		c7.5-0.4,14.7,0.2,21.6,3.3c0-0.3,0-0.6-0.1-0.9c1.2-0.2,2.5-0.8,3.7-0.7c5.3,0.5,10.6,0.8,15.8,1.8c4.6,0.8,9.3,0.3,13.9,1
		c4.8,0.7,9.6,0.9,14.4,1.4c12.3,1.1,24.7,2.2,37,3.3c9.7,0.9,19.4,1.7,29.1,2.5c4.2,0.4,8.4,0.8,12.6,1.1c-5,0-10,0.1-15-0.1
		c-6.8-0.2-13.5-0.8-20.3-1c-11.4-0.3-22.8-0.2-34.2-0.8c-15.7-0.7-31.4-1.7-47.1-2.8c-12.6-0.9-25.3-2-37.9-3.1
		c-2.3-0.2-4.6-0.5-7.4-0.9C251.8,65.6,253.8,63.5,257.2,62.5z M292,60.2c-3.2-2.8-4.1-5.4-2.8-8.7c0.4,0.2,0.9,0.4,1.1,0.7
		c0.3,0.3,0.5,0.8,0.7,1.3C289.5,54,289.5,54,292,60.2z M486.9,72.9c-1.8,0.4-6.4-1.5-8.2-4.3c-1.5-2.3-3.6-3.2-6.2-3.4
		c-4.1-0.3-8.2-0.4-12.3-0.7c-1.3-0.1-2.6-0.6-3.9-0.9c0.1-0.3,0.2-0.6,0.3-0.9C468.8,60,479,63.5,486.9,72.9z M283.3,36
		c2.2-2.6,5.4-1.9,8.2-2.7c0.1,0.2,0.2,0.5,0.2,0.7c-2.7,1-5.3,1.9-8,2.9C283.5,36.5,283.4,36.2,283.3,36z M271.4,32.6
		c0,0.2,0,0.3,0,0.5c0.8,0.1,1.5,0.2,3,0.5c-9.8,1.7-18.9,3.4-28,4.9c-1.3,0.2-3.4-0.5-4.2-1.5c-0.8-1,2.4-5.3,3.9-5.4
		c8.8-0.6,17.7-1.2,26.5-1.9c11.7-0.9,23.3-1.9,35-2.7c2.4-0.2,4.9,0,7.3,0c0,0.2,0,0.4,0,0.6C300.4,29.2,285.9,30.9,271.4,32.6z
		 M244.1,43.4c3.1,4.4,6.8,8.4,10.1,12.6c0.6,0.7,0.8,1.7,1.2,2.5c-0.8,0.2-1.7,0.3-2.5,0.5c-0.9,0.2-1.8,0.5-2.6,0.7
		c0,0.2,0,0.4,0.1,0.6c0.9,0.3,1.8,0.5,2.9,0.8c-0.7,3.7-3.7,5-6.8,7.1c0.3-1.2,0.5-1.8,0.7-2.4c-2.1,2.9-5.1,2.5-7.9,2.3
		c-7.1-0.5-14.3-1.1-22.1-1.8c2.2-2.5,3.9-4.6,5.7-6.6c4.7-5.6,9.3-11.2,14-16.8C239.6,39.4,241.5,39.7,244.1,43.4z M239.2,76
		c0.3,0.5,0.5,1,0.8,1.5c-1.4,0.7-2.8,1.4-4.3,2.1c-0.2-0.4-0.4-0.8-0.6-1.1C236.5,77.6,237.9,76.8,239.2,76z M237.9,89.9
		c0.7,1.2,1.4,1.9,1.3,2.3c-0.2,0.7-1,1.2-1.5,1.7c-0.4-0.5-1.3-1-1.2-1.5C236.5,91.8,237.1,91.2,237.9,89.9z M238,86.5
		c0.2-0.7,0.8-1.3,1.4-2.2c0.7,0.8,1.6,1.5,1.5,1.6c-0.4,0.6-0.9,1.3-1.6,1.6C239,87.6,237.9,86.7,238,86.5z M240.3,78.7
		c0.6-0.8,1.1-1.7,1.9-2.2c0.3-0.2,1.2,0.4,2.6,1c-1.4,1.1-2.2,1.8-3,2.1C241.4,79.8,240.8,79.1,240.3,78.7z M530.8,77.9
		c-1.4-0.1-3.2,0.3-4.3-0.3c-4.8-2.7-9.4-5.7-14.1-8.7c-0.2-0.1-0.3-0.5-0.7-1.2c7.7,1,13.2,5.5,19.1,9
		C530.9,77.1,530.9,77.5,530.8,77.9z M540.6,53.6c12.4,6.8,24.8,13.7,37.2,20.6c0.5,0.3,0.9,0.7,1.4,1c-0.1,0.3-0.2,0.6-0.2,1
		c-5.1-0.3-10.2-0.1-15.2-1c-9.3-1.6-18.5-3.9-27.7-5.8c-2.3-0.5-4.8-0.2-6.9-1c-3.3-1.2-6.6-2.6-9.5-4.5
		c-9.3-5.9-18.4-12.1-27.6-18.2c-0.2-0.1-0.3-0.4-0.5-0.7c0.4-0.1,0.6-0.4,0.9-0.3c6.4,1.1,12.7,2.3,19.1,3.4c1.8,0.3,3.7,0,5.5,0.3
		c5.3,0.7,10.5,1.3,15.7,2.3C535.4,51.1,538.1,52.2,540.6,53.6z M461.4,25c0.1-0.2,0.2-0.3,0.3-0.5c14.1,6.8,28.2,13.6,42.8,20.6
		c-1,0-1.6,0.1-2.2,0c-5.1-0.9-10.3-1.4-15.3-2.8c-2.4-0.7-4.4-2.8-6.5-4.3c0.2-0.3,0.3-0.5,0.5-0.8c1.3,0.6,2.7,1.2,4,1.8
		c0.2-0.3,0.3-0.6,0.5-0.9C477.4,33.8,469.4,29.4,461.4,25z M530.4,49.1c-1.2-0.1-2.3-0.3-3.5-0.4c-4.6-0.7-9.3-1-13.8-2.1
		c-4-1-7.9-2.4-11.6-4.2c-11.3-5.4-22.4-11.1-33.6-16.7c-0.4-0.2-0.8-0.5-1.2-0.7c0.2-0.4,0.4-0.7,0.6-1.1c13.8,6,27.5,12,41.3,17.9
		c0.1-0.1,0.2-0.2,0.2-0.3c-0.6-0.4-1.1-0.9-1.7-1.1c-4.6-2.1-9.3-4.3-14-6.4c-9.9-4.5-19.8-9-29.7-13.4c-0.2-0.1-0.4-0.3-0.5-0.8
		c23.5,7.3,45,19.2,67.7,28.5C530.5,48.5,530.5,48.8,530.4,49.1z M461.3,14.8c9.4,3.3,18.8,6.6,28.3,9.9c-0.2,0.4-0.3,0.9-0.5,1.3
		c-9.4-3.4-18.7-6.9-28.1-10.3C461.1,15.4,461.2,15.1,461.3,14.8z M441.8,11.6c-7.5-0.6-14.9-1.2-22.4-1.8
		C426.9,10,434.5,8.9,441.8,11.6z M441.8,17.3c0,0.3-0.1,0.7-0.1,1c-5.1-0.8-10.2-1.6-15.3-2.4c0-0.2,0-0.3,0.1-0.5
		C431.5,16,436.6,16.6,441.8,17.3z M409.8,6.6c3.8,0,7.7,0,11.5,0c0,0.1,0,0.3,0,0.4c-3.8,0-7.7,0-11.5,0
		C409.8,6.9,409.8,6.8,409.8,6.6z M394,9.4c0,0.2,0,0.3,0,0.5c-8.1,0-16.2,0-24.4,0c0-0.2,0-0.3,0-0.5C377.7,9.4,385.8,9.4,394,9.4z
		 M86.4,51.1c4.5-0.9,9.1-1.9,13.6-2.8c26.3-5.1,52.6-10.4,78.9-15.2c16.5-3,33.1-5.2,49.6-7.6c16.3-2.4,32.5-4.9,48.8-6.8
		c17-1.9,34.1-3.9,51.1-4.6c21.7-0.8,43.5-0.4,65.3-0.4c13.4,0,26.7,2.1,39.9,4.2c3,0.5,5.2,1.7,7.7,3.4c6.1,4.1,12.7,7.4,19.1,11.2
		c9.3,5.5,18.5,11.2,27.7,16.8c-0.1,0.2-0.2,0.4-0.3,0.6c-3.7-1.7-7.5-3.3-11.2-5.1c-11.8-5.7-23.5-11.4-35.3-17.2
		c-0.3-0.1-0.6-0.2-0.7-0.5c-2.2-4.5-6.7-4.1-10.5-4.8c-10-1.8-20-3.4-30-4.9c-1.8-0.3-3.7-0.3-5.6-0.2c-0.4,0-0.9,0.6-1.6,1.3
		c-13.9,0.8-28.4,1.5-42.9,2.4c-14.4,1-28.8,2.2-43.3,3.3c-14.5,1.2-29,2.1-43.5,3.6c-14.3,1.4-28.7,1.8-41.9,4.6
		c-0.5,1-0.7,1.7-1,1.9c-3.4,1.8-6.8,3.6-10.2,5.4c-2.1,1.2-4.1,2.6-6.3,3.7c-1,0.5-2.2,0.9-3.3,0.9c-3.5,0.1-7.2-0.5-10.6,0.1
		c-10.1,1.8-20.1-1-30.2,0.4c-8,1.1-16,1.5-24,2.3c-10.7,1-21.4,2.1-32.2,3.1C97.8,50.9,92.2,51.3,86.4,51.1z M153.2,60.5
		c-0.1,0.2-0.2,0.5-0.2,0.7c-4-1.4-8-2.7-11.9-4.1c0.1-0.3,0.2-0.5,0.2-0.8C145.3,57.7,149.3,59.1,153.2,60.5z M108.6,55.2
		c0.1-0.2,0.2-0.4,0.2-0.6c3.6,1.3,7.2,2.6,10.8,3.9c-0.1,0.4-0.3,0.8-0.4,1.2C115.7,58.2,112.1,56.7,108.6,55.2z M91.4,62.1
		c0,0.1,0,0.1,0,0.2c-5.4,0-10.8,0-16.2,0c0-0.1,0-0.1,0-0.2C80.6,62.1,86,62.1,91.4,62.1z M53.7,64.3c0,0.1,0,0.2,0,0.3
		c-3.7,0.4-7.4,0.8-11.1,1.2c0-0.5,0-1,0-1.5C46.2,64.3,49.9,64.3,53.7,64.3z M32,68.2c0.6,0.2,1.1,0.4,1.7,0.5
		c-0.6,1.6-1.2,3.1-1.8,4.7c-0.4-0.1-0.8-0.3-1.2-0.4C31.1,71.5,31.6,69.8,32,68.2z M79.9,96.7c-12.2,1.5-24.3,0.8-36.4,0.6
		c-6.8-0.1-13.5,0.8-20.3,1.3c-0.7,0-1.4,0.3-2,0.2c-1.7-0.3-3.4-0.8-5.1-1.2c1.1-1.9,1.9-4.2,3.5-5.7c2.7-2.6,6.2-4.6,8.8-7.2
		c1.7-1.7,3.4-2.5,5.7-2.4c4.9,0.1,9.9-0.2,14.8,0.1c5.8,0.3,11.5,1.1,18.1,1.8c-3.5,0.3-6.1,0.6-8.8,0.8c0,0.2,0,0.4,0.1,0.7
		c14-0.4,28-0.9,41.9-1.3c0.1,0.3,0.2,0.5,0.3,0.8C93.5,88.8,88.8,95.6,79.9,96.7z M101.1,75.8c0,0.4,0,0.8,0,1.2
		c6.5,0,12.9,0,19.4,0c0,0.4,0,0.7,0,1.1c-1,0-1.9,0-2.9,0c-14.9,0.2-29.7,0.3-44.6,0.8C62,79.3,51.2,80.3,40.3,81
		c-2.4,0.2-4.9,0-7.9,0c0.7-1.3,1.2-2.3,1.9-3.1c1-1.2,2.1-2.3,3.1-3.5c3.6-4.5,3.6-4.5,8.4-5.6c-1.3-0.2-2.5-0.4-4.5-0.8
		c1-0.6,1.5-1.2,2.1-1.3c6.2-0.7,12.5-1.6,18.7-1.8c8.6-0.3,17.1-0.2,25.7,0c4.9,0.1,9.8,0.7,14.7,0.9c7.5,0.4,15.1,0.8,22.7,0.8
		c-5.6-0.7-11.2-1.5-17.6-2.3c8.8,0,16.7,0,24.7,0c1.9,0,3.7,0.3,5.6,0.3c19.4,0.2,38.7,1.1,58,3.5c2.4,0.3,4.9,0.6,7.3,0.6
		c2.1,0.1,3,1,3.2,3c0.2,2.1,0.5,4.3,0.8,7.4C171.5,74.7,136.3,75.8,101.1,75.8z M207,88.9c3.8-1,4.7-0.4,5.9,3.8
		C209.8,93.2,208.8,90.8,207,88.9z M212.5,71.8c0.4-0.8,1.8-1.7,2.7-1.6c4.8,0.5,9.5,1.2,14.3,1.9c-6.3,2-7.3,5.6-2.8,9.1
		c-4.1-0.5-7.6-0.7-10.9-1.5C213.6,79.1,211.4,73.8,212.5,71.8z M234.4,75c-1.3,3.1-3.7,3.8-6.9,2.5c-0.1-0.3-0.1-0.6-0.2-0.9
		C229.6,76.1,231.8,75.6,234.4,75z M216.5,83.1c0.1-0.4,0.2-0.7,0.4-1.1c1.5,0.1,3,0.2,4.5,0.3c4,0.4,8,0.7,11.9,1.3
		c1,0.2,2,1.2,2.9,1.8c-1.1,0.5-2.3,1.4-3.3,1.3c-4.6-0.6-9.3-1.4-13.9-2.3C218.1,84.3,217.3,83.6,216.5,83.1z M219.3,90.7
		c0.3-0.3,0.5-0.5,0.8-0.8c4.3,0,8.5,0,12.8,0.2c0.7,0,1.4,0.9,2.1,1.4c-0.7,0.7-1.3,2-2.1,2c-3.5,0.2-7.1,0.3-10.6-0.1
		C221.2,93.3,220.2,91.6,219.3,90.7z M233.6,107.6c-0.3,0-0.6,0.1-0.9,0.1c-0.8-1.1-1.6-2.3-2.5-3.4c-0.2,0.1-0.3,0.1-0.5,0.2
		c1.2,2.5,2.5,5,3.7,7.5c-0.2,0.1-0.4,0.2-0.5,0.4c-0.4-0.4-1-0.8-1.3-1.2c-2.9-4.2-5.9-8.3-8.7-12.6c-0.5-0.8-0.6-2-0.9-2.9
		c1.1-0.2,2.2-0.7,3.2-0.6c2.4,0.2,4.9,0.5,7.3,1c0.8,0.2,2,1.1,1.9,1.7C234.3,101,233.9,104.3,233.6,107.6z M286.3,210.7
		c2.3-0.5,11.9,5,14.6,8.5C296.2,216.5,291.5,213.7,286.3,210.7z M303.5,216.7c-3.4-1.9-6.8-3.8-10.2-5.7c0.2-0.4,0.3-0.7,0.5-1.1
		c3.4,2,6.7,4,10.1,6C303.7,216.3,303.6,216.5,303.5,216.7z M323.6,210.7c0.2-0.3,0.3-0.6,0.5-0.9c8.3,2.9,15.6,7.6,23.3,11.7
		c-0.1,0.2-0.2,0.5-0.3,0.7C339.2,218.4,331.4,214.6,323.6,210.7z M339.2,221.7c-0.1,0.2-0.2,0.4-0.3,0.6c-2.6-1.4-5.1-2.9-7.7-4.3
		c0.2-0.3,0.3-0.5,0.5-0.8C334.1,218.7,336.6,220.2,339.2,221.7z M327.1,219.2c-5.6-2.9-11.2-5.8-16.9-8.8
		C312.7,210,323.9,215.5,327.1,219.2z M312.8,215.1c0.1-0.2,0.2-0.5,0.4-0.7c5.3,2.9,10.5,5.8,15.8,8.7
		C322.3,222.7,317.5,218.9,312.8,215.1z M326.7,231.3c0-0.4,0-0.9-0.1-1.3c8.5-0.5,17-0.4,25.5-0.1
		C343.7,230.3,335.2,230.8,326.7,231.3z M359.4,222.9c-2.7-0.8-5.5-1.4-8.1-2.5c-6.1-2.7-12.1-5.6-18.1-8.5
		c-0.8-0.4-1.6-0.9-2.8-1.5c3.8-1.1,6.6,0.5,9.4,1.8c6.3,2.8,12.6,5.8,18.8,8.8c0.4,0.2,0.8,0.5,1.2,0.8
		C359.7,222.1,359.6,222.5,359.4,222.9z M365.3,221.7c-7.9-3.7-15.9-7.4-23.8-11.1c0.1-0.2,0.2-0.5,0.3-0.7
		c8.7,2.1,16.2,6.9,24,11.1C365.6,221.2,365.5,221.4,365.3,221.7z M350.3,210.6c0.2-0.3,0.3-0.7,0.5-1c4.2,2,8.4,3.9,12.7,5.9
		c-0.1,0.2-0.2,0.5-0.4,0.7c-0.8-0.3-1.7-0.5-2.4-0.9C357.2,213.8,353.8,212.2,350.3,210.6z M381.4,230c0-0.1,0-0.2,0-0.3
		c7,0,14,0,21,0c0,0.1,0,0.2,0,0.3C395.4,230,388.4,230,381.4,230z M376.5,210.3c0.1-0.3,0.3-0.5,0.4-0.8c7.9,4,15.8,8,23.8,12
		C397.7,222.5,380.2,213.9,376.5,210.3z M383.4,209.9c0.1-0.2,0.2-0.5,0.3-0.7c8.3,4.1,16.7,8.2,25,12.3
		C406.4,222.3,387.5,213.2,383.4,209.9z M428.6,222.4c-7.7-3.9-15.5-7.8-23.4-11.7C408,209.9,423.3,217.3,428.6,222.4z M417.5,210.9
		c0.2-0.3,0.4-0.6,0.6-0.9c8.7,1.9,15.3,7.9,23.4,11c-0.3,0.5-0.5,1-0.8,1.5C433,218.6,425.3,214.7,417.5,210.9z M415.5,221.5
		c-0.1,0.2-0.3,0.5-0.4,0.7c-7.9-3.9-15.7-7.8-23.6-11.7c0.1-0.3,0.3-0.5,0.4-0.8C400.2,212.7,407.9,217,415.5,221.5z M469.8,230.9
		c-19,0-38,0-57,0c0-0.1,0-0.2,0-0.3c19,0,38,0,57,0C469.8,230.7,469.8,230.8,469.8,230.9z M470.6,212.3c-3.8,0-7.5,0-11.3,0
		c0-0.2,0-0.4,0-0.7c3.8,0,7.5,0,11.3,0C470.6,211.8,470.6,212.1,470.6,212.3z M493.5,209.6c-10.2-0.3-20.3-0.6-29.1-0.9
		c8.8,0,19,0,29.1,0C493.5,209,493.5,209.3,493.5,209.6z M488.6,206.3c0-0.1,0-0.2,0-0.3c5.7,0,11.5,0,17.2,0c0,0.1,0,0.2,0,0.3
		C500,206.3,494.3,206.3,488.6,206.3z M512.1,206.9c0-0.1,0-0.2,0-0.3c4.2,0,8.4,0,12.6,0c0,0.1,0,0.2,0,0.3
		C520.6,206.9,516.3,206.9,512.1,206.9z M534.8,205.1c-1.6,0.4-3.3,0.8-4.9,0.8c-16.2-0.3-32.5-0.9-48.7-1.1
		c-19.8-0.3-39.6-0.5-59.4-0.6c-25.6-0.2-51.2-0.4-76.8-0.6c-0.7,0-1.3,0-2,0c0-0.4,0.1-0.8,0.1-1.1c8,0,15.9,0.1,23.9,0
		c15-0.2,29.9-0.5,44.9-0.6c37.2-0.2,74.4-0.4,111.7-0.5c3.6,0,7.2,0.7,10.8,1.2c0.5,0.1,1.3,0.7,1.4,1.1
		C535.9,204.1,535.3,205,534.8,205.1z M535.4,196.7c-0.1,1-1.8,2.5-2.9,2.7c-3.4,0.4-6.9,0.5-10.3,0.4c-6.2-0.2-12.4-0.9-18.6-0.9
		c-28.5-0.3-56.9-0.6-85.4-0.6c-15.1,0-30.1,0.7-45.2,1.1c-14.2,0.4-28.3,0.8-42.5,1.2c-7.1,0.2-14.2,0.5-21.3,0.5
		c-1.5,0-3-1-4.5-1.5c-0.3-0.1-0.5-0.4-0.7-0.5c-6.8-0.7-9.7-6.3-13.4-10.8c-9.4-11.4-19-22.6-27.6-34.6
		c-9.6-13.4-18.2-27.4-27-41.4c-1.3-2.1-1.2-5.3-1.4-8c-0.1-2,0.2-4.1,0.5-6.2c0.1-0.7,0.9-1.3,1.4-1.9c0.5,0.7,1.3,1.5,1.3,2.2
		c0,1.8-0.3,3.7-0.6,5.8c0.4-0.3,0.6-0.4,0.6-0.5c2.2-8.9,0.6-7.2,9-6.3c12.2,1.4,24.5,2.6,36.6,4.4c3.4,0.5,6.6,2.6,9.9,4.2
		c2.5,1.3,4.9,2.8,7.4,4.3c0.2-0.2,0.3-0.5,0.5-0.7c-3.3-2-6.6-4-9.8-6c0.1-0.3,0.1-0.5,0.2-0.8c3,0.4,6,0.9,9.1,1.3
		c3.8,0.6,7.5,1,11.2,1.8c3.1,0.7,6.4,1.4,9.1,3c9.1,5.2,18,10.8,27.2,16c-8.3-6.8-18-11.6-27.1-17.2c0.1-0.3,0.3-0.7,0.4-1
		c2.5,0.8,5.3,1.2,7.5,2.5c13.7,8.2,27.2,16.6,40.8,24.9c0.6,0.4,1.3,0.7,2.1,0.8c-12-9.8-25.4-17.4-38.4-25.9
		c1.2,0.4,2.4,0.7,3.4,1.3c9.3,5.4,18.5,10.8,27.7,16.4c5.6,3.3,11,6.9,16.7,10c-12.2-10.4-26.4-17.9-40.2-26
		c0.1-0.2,0.2-0.5,0.3-0.7c1.4,0.5,3,0.7,4.2,1.4c13,7.8,25.9,15.8,38.8,23.7c4.2,2.6,8.5,5.2,12.9,7.5
		c-14-11.6-29.7-20.6-45.3-29.8c0.1-0.3,0.3-0.6,0.4-1c1.7,0.6,3.6,0.9,5.1,1.9c13.1,8.3,26.2,16.7,39.3,25.2
		c6.3,4.1,12.5,8.6,18.7,12.9c0.7,0.5,1.5,0.8,2.4,1c-17.5-14.5-35.9-27.6-55.7-38.9c0.1-0.2,0.2-0.5,0.3-0.7
		c2.8,1.4,5.8,2.4,8.4,4.1c15.8,10.1,31.4,20.3,47.1,30.5c2.2,1.4,4.5,2.8,6.9,3.8c-16.2-13.3-34-24.3-51.7-35.4
		c0.2-0.3,0.3-0.7,0.5-1c2,0.8,4.2,1.3,5.9,2.5c17.3,11.6,34.6,23.3,51.9,35c0.5,0.3,1,0.6,1.7,0.6c-15.5-13.8-33.3-24.4-50.2-36.4
		c1.4,0.5,2.8,0.8,4.1,1.5c7.7,4.6,15.4,9.2,22.8,14.2c10.6,7.1,21.1,14.5,31.6,21.8c0.9,0.6,1.8,1.1,2.7,1.7
		c0.2-0.2,0.4-0.5,0.6-0.7c-5.3-4.2-10.5-8.6-15.9-12.6c-5.6-4.1-11.5-8-17.3-11.9c-5.7-3.8-11.5-7.5-17.1-11.8
		c1.5,0.6,3.2,1,4.5,1.9c15,10,29.9,20.1,44.9,30.1c2.5,1.7,5,3.3,7.5,5c0.2-0.3,0.4-0.6,0.6-0.9c-8-5.8-15.8-11.7-23.9-17.3
		c-8.1-5.6-16.4-10.8-24.6-16.2c0.1-0.3,0.2-0.6,0.3-0.9c2.8,0.9,5.9,1.3,8.2,2.9c14.6,10,29.1,20.3,43.6,30.5
		c1.5,1.1,3.1,2.1,4.9,2.8C448,144.2,432.5,135,418,124.4c0.1-0.3,0.3-0.5,0.4-0.8c1.4,0.7,2.9,1.2,4.2,2.1
		c11.3,8.2,22.5,16.6,33.8,24.9c4,3,8,5.9,12.2,8.6c-12.6-12.9-27.4-23.1-42.2-33.4c5.2-0.6,11.5,2.1,16.7,6.3
		c13.3,10.8,26.8,21.3,40.3,31.9c0.5,0.4,1.1,0.6,1.7,0.9c0.2-0.2,0.3-0.5,0.5-0.7c-14-11.6-28.1-23.2-42.5-35.2
		c3.7-0.3,5.8,1.7,7.9,3.4c11.8,9.5,23.6,19,35.7,28.1c-10.1-11-22.5-19.4-33.7-29.1c0.2-0.2,0.3-0.4,0.5-0.7
		c16.6,12.7,33.3,25.4,49.9,38.1c0.2-0.2,0.4-0.5,0.6-0.7c-13.7-13-29.3-23.6-44-35.3c0.1-0.3,0.3-0.5,0.4-0.8
		c1.9,0.8,4.1,1.2,5.7,2.4c13.7,10.3,27.2,20.8,40.8,31.3c2.3,1.7,4.6,3.3,6.9,5c0.2-0.2,0.3-0.4,0.5-0.5c-2.6-2.4-5.2-4.9-7.9-7.3
		c-2.8-2.4-5.8-4.7-8.7-7.1c-3-2.4-6-4.8-9-7.1c-3-2.3-6-4.5-8.9-6.8c-3-2.2-5.9-4.5-8.9-6.7c0.1-0.3,0.3-0.6,0.4-0.8
		c2.3,1,4.9,1.6,6.9,3.1c11.5,8.4,22.9,17,34.3,25.6c3.9,2.9,7.8,5.8,12,8.4c-12.4-12.8-27.4-22.4-41.1-33.9
		c1.1,0.4,2.4,0.5,3.3,1.1c11.8,8.7,23.5,17.5,35.3,26.2c2.9,2.2,5.5,4.9,8.7,6.6c4.7,2.4,5.7,6.7,5.9,11
		C536.8,187.1,536.1,192,535.4,196.7z M536.3,108.3c0-0.4,0-0.9,0.2-1.1c1.8-1.8,1.3-3.5-0.9-5c0.2-0.2,0.4-0.3,0.6-0.5
		c1.6,0.2,3.3,0.2,4.8,0.7c9.6,2.9,19.3,5.5,28.7,9.1c5.1,1.9,9.6,5.5,14.4,8.4c3.8,2.4,7.6,4.9,11.2,7.5c1.8,1.3,3.5,2.9,4.9,4.7
		c1.2,1.5,1.8,3.4,2.8,5.5c0,0,0.5-0.2,0.5-0.2c-2.5,7-5.1,14.1-7.8,21.1c-0.3,0.8-1.7,1.8-2.6,1.7c-3.9-0.1-7.9-0.3-11.8-0.8
		c-2.4-0.4-4.6-1.6-6.9-2.3c-3.3-0.9-6.8-1.2-9.8-2.7c-4.6-2.4-9.8-2.1-14.5-3.6c-2.4-0.8-4.8-1.8-7.3-2.3c-1.8-0.4-2-1.5-2.1-3
		c-0.5-9.8-1-19.6-1.6-29.4c-0.1-1.5-0.7-3-1.5-4.4c0.3,6.9,0.6,13.9,0.9,20.8c-0.3,0-0.6,0-0.8,0
		C537.4,124.3,536.8,116.3,536.3,108.3z M582.9,170.1c3.7,3.3,7.3,6.5,11,9.8c-0.2,0.3-0.5,0.5-0.7,0.8c-3.6-3.3-7.3-6.7-10.9-10
		C582.5,170.5,582.7,170.3,582.9,170.1z M579.5,164.5c0.2-0.2,0.4-0.4,0.6-0.6c3.5,3,7,6.1,10.6,9.1c-0.2,0.2-0.4,0.4-0.6,0.5
		C586.5,170.6,583,167.6,579.5,164.5z M538,197c0.5-7.7,1.1-15.5,1.7-23.2c0-0.4,0.3-0.7,0.7-1.5c1.9,1.3,3.7,2.4,5.8,3.8
		c-1.5-3.6-6.9-4.8-5.3-10.6c5.1,3.7,9.8,7.1,14.5,10.4c0.1-0.1,0.2-0.2,0.3-0.3c-2.6-2.4-5.2-4.9-7.9-7.2c-1.7-1.5-3.7-2.7-5.1-4.4
		c-1-1.1-1.4-2.8-2-4.3c0.4-0.2,0.7-0.5,1.1-0.7c9.4,7.6,18.8,15.2,28.1,22.7c0.3-0.4,0.6-0.7,0.9-1.1c-10-8.6-20-17.3-30-25.9
		c0.4-0.4,0.7-0.8,1.1-1.2c12.7,10.5,25.4,21,38.2,31.6c0.3-0.3,0.5-0.6,0.8-0.9c-6.9-6.3-13.9-12.6-20.8-18.9
		c0.1-0.1,0.1-0.2,0.2-0.3c9.1,7.4,18.2,14.7,27.3,22.1c0.3-0.3,0.5-0.6,0.8-0.9c-11.2-11.6-24.4-20.9-36.7-31.3
		c0.2-0.3,0.4-0.6,0.6-0.9c1.7,1.2,3.6,2.3,5.2,3.7c9.8,8.3,19.6,16.8,29.4,25.1c1,0.9,2.2,1.5,3.7,1.8c-9.2-10-20-18.3-29.7-28
		c0.9,0.5,2,0.8,2.8,1.5c9.5,8.3,19,16.5,28.4,24.9c1.1,1,2,2.5,2.3,3.9c0.8,3.5,1.2,7.2,1.8,10.8c0.3,1.7-0.4,2.4-2,2.4
		c-6-0.1-12-0.4-18-0.4c-7.5-0.1-15-0.1-22.5-0.2c-4.2,0-8.5,0-12.7,0C539.2,199.4,537.9,199,538,197z M598,207.6
		c-0.3,0.7-1.7,1.2-2.6,1.2c-5.9-0.1-11.9-0.4-17.8-0.7c-5.7-0.3-11.3-0.8-17-1c-6.6-0.3-13.2-0.4-19.7-0.7c-0.5,0-0.9-0.2-1.7-0.3
		c2-3.4,4.5-4.5,8-4.5c10.7,0.2,21.5,0.1,32.2,0c4.7,0,9.4-0.4,14.1-0.5C596.4,201.1,599.1,205,598,207.6z M599.8,197.2
		c-1.1-4.5-2-9-2.6-13.5c-0.2-1.5,0.7-3.1,0.9-4c-0.2-3-0.5-5.5-0.6-8c-0.2-3.1,1.4-3.2,3.7-2.2c0.3,0.2,0.7,0.3,0.8,0.3
		c1.5,10.2,3,20.1,4.5,30.3C603.7,201.8,600.7,200.9,599.8,197.2z M601.9,203.1c0-0.6,0.9-1.6,1.4-1.5c1.7,0.1,3.9-0.1,4.8,0.8
		c1.6,1.7,2.3,4.2,3.4,6.4C606.2,211,601.7,208.3,601.9,203.1z M621.3,227.3c-0.4,0.6-2.4,0.9-3,0.4c-4.9-4-8-9.4-11.7-14.6
		c4.5-1.5,6.6-1,8.9,2c2.2,2.8,4.5,5.4,6.4,8.4C622.5,224.4,622,226.3,621.3,227.3z M624.7,221c-2.7-2.3-5.2-4.4-7.6-6.5
		c0.3-0.5,0.7-1,1-1.6c3.3,0.2,6.7,0.3,10.8,0.6C627.3,216.3,626.1,218.5,624.7,221z M632.2,219.4c0.2,0.2,0.5,0.5,0.7,0.7
		c-1.4,1.6-2.9,3.1-4.3,4.7c-0.3-0.3-0.6-0.6-1-0.9C629.1,222.3,630.6,220.9,632.2,219.4z M631.4,232.1c-2.7,0-5.4,0-8.1,0
		c0-0.4,0-0.9,0.1-1.3c2.7,0.2,5.4,0.3,8.1,0.5C631.4,231.6,631.4,231.8,631.4,232.1z M656,238.3c9.2,0.3,18.4-2.5,27.6,0
		C674.4,240.4,665.2,240.6,656,238.3z M641.7,233.3c-1.1-0.1-2.1-1.2-3.8-2.2c1.6-0.3,2.5-0.5,3.4-0.6c-4.2,0.1-7.8-1-10.9-4.6
		c4.8-3.8,9.4-7.8,14.3-11.3c1.1-0.8,3.3-0.5,4.9-0.4c7.7,0.5,15.3,1,22.9,1.7c1.1,0.1,2.7,1,3.2,1.9c3.1,6,6,12.1,9.3,19
		C670.4,235.7,656.1,234.6,641.7,233.3z M679.9,198.8c0.3-0.1,0.6-0.1,0.9-0.2c1.3,5.3,2.6,10.5,3.9,15.8
		C681.4,212.2,678.7,201.9,679.9,198.8z M703.2,230.4c-2.7,1.5-5.5,3.1-8.4,4.3c-0.5,0.2-2.1-0.7-2.2-1.3c-1-4.7-2-9.4-2.6-14.2
		c-0.1-0.9,1-1.9,1.3-2.4c-1-1.5-2.4-2.9-3-4.6c-1.7-4.4-3-9-4.5-13.4c-0.4-1.1-1.1-2.1-1.6-3.1c-0.8-1.7-1.4-3.4,0.3-5.1
		c0.6-0.6,0.5-1.7,0.7-2.6c-1,0.2-2.3,0-2.8,0.6c-1.7,2.3-3.1,4.7-4.7,7.1c-0.4,0.6-0.7,1.6-1.3,1.8c-2.9,1.1-2.6,3.3-2.2,5.6
		c0.4,2.7,0.9,5.4,1.4,8.1c0.4,2-0.4,2.8-2.3,2.7c-2.6-0.2-5.1-0.4-7.6-0.6c-5.4-0.4-10.7-0.8-16.5-1.2c4-5.1,7.4-9.8,11.2-14.1
		c1.3-1.5,3.6-2.2,5.4-3.3c0.8-0.5,1.5-1.1,2.2-1.7c-0.8-0.5-1.6-1-2.4-1.4c-0.2-0.1-0.6-0.1-1.7-0.2c0.6-1.7,1-3.2,1.5-4.7
		c0.2,0.1,0.4,0.1,0.6,0.2c-0.1-0.3,0-0.7-0.2-0.8c-2.8-2.4-5.4,0-8,0.5c-1.6,0.3-3.2,1.1-2.9,3.4c0.1,0.6-0.5,1.4-1,2
		c-4.4,5.5-9.3,10.5-15.3,14.2c-0.6,0.4-1.2,0.7-1.7,1.2c-5.4,6.3-12.2,3.3-18.4,2.6c-2.9-0.3-5.3-6.6-4.1-9.2
		c-4.3-1.1-2.9-5.2-4.2-7.9c-0.7-1.4-0.2-3.3-0.5-4.9c-0.5-2.7-1.5-5.3-2-7.9c-0.3-2.1-0.1-4.2,0.6-6.4c0,2.9,0,5.8,0,8.8
		c0.3,0,0.5,0,0.8,0c0-3,0-6,0-9c4.1-1.2,7.8-0.6,11.6,0.4c8.8,2.4,17.6,5.1,26.5,7c5.3,1.1,10.9,1,16.4,1.2
		c2.1,0.1,3.6,0.6,5.1,2.3c5.1,5.6,8.2,6.3,14.3,0.6c1.9-1.7,2.8-1.5,4.5,0.3c1.8,1.8,4.2,3.3,6.6,4.1c11.4,3.9,23,7.6,34.5,11.4
		c0.6,0.2,1.3,0.5,2.7,1c-2.4,4-4.6,7.7-6.9,11.4c-0.6,0.9-1.4,1.7-2,2.6c-1.7,2.4-3.7,3.4-6.8,2.8c-3.4-0.7-7-0.6-10.5-0.3
		c4.3,0.5,8.6,1.1,12.9,1.6c0,0.3,0.1,0.5,0.1,0.8c-4.1,3.1-7.2,7.8-12.7,8.4C703.2,229.6,703.4,230.3,703.2,230.4z M705.9,233.4
		c3.5-3.5,6.6-4.2,11.6-2.8C716.4,233.2,715.4,233.4,705.9,233.4z M738,201.9c-2.6,6.9-5.6,13.6-10.8,17.8c-0.7,1.5-0.9,2.4-1.5,2.9
		c-6.5,6.5-8.6,7.4-13,5.6c2.3-2.4,4.8-4.6,6.7-7.3c3.7-5.3,7.2-10.8,10.7-16.2c1.1-1.6,1.8-3.6,3.1-4.9c0.6-0.6,2.4-0.2,3.6,0.2
		C737.5,200.1,738.2,201.5,738,201.9z M762.8,230.2c-6.9-0.3-13.8-0.4-20.6-0.8c-1.4-0.1-3.8,0.6-3.9-1.9c-0.1-3.4,1.5-5.2,4.7-4.9
		c6.3,0.6,12.5,1.3,18.8,2c10.4,1.1,20.7,2.2,31.1,3.3c5.5,0.6,11,1,16.4,1.7c1.2,0.1,2.2,1.1,3.3,1.6c-0.1,0.3-0.2,0.7-0.4,1
		c-0.6,0.1-1.3,0.4-1.9,0.3c-10.6-0.4-21.2-0.9-31.8-1.4C773.2,230.8,768,230.4,762.8,230.2z"/>
	<path class="st0" d="M635.9,239.6L635.9,239.6C636,239.6,636,239.6,635.9,239.6z"/>
	<path class="st0" d="M681.6,156.2C681.6,156.2,681.6,156.2,681.6,156.2C681.6,156.2,681.6,156.2,681.6,156.2L681.6,156.2z"/>
	<path class="st0" d="M750.4,102.1c-0.1,0.3-0.2,0.6-0.3,0.9c18.9,7.4,37.7,14.8,56.6,22.1C788.1,116.8,769.4,108.9,750.4,102.1z"/>
	<path class="st0" d="M31.3,172.7c-1.1-10.7-2.2-21.4-3.3-32.2C25.2,144,26.9,161.9,31.3,172.7z"/>
	<path class="st0" d="M572,86.2c6.3,0,12.7,0,19,0c0-0.2,0-0.3,0-0.5c-6.3,0-12.6,0-19,0C572,85.9,572,86.1,572,86.2z"/>
	<path class="st0" d="M81,102.4c0,0.4-0.1,0.7-0.1,1.1c2.5,0.3,5,0.6,7.5,0.9c0-0.4,0.1-0.8,0.1-1.2C85.9,102.9,83.4,102.6,81,102.4
		z"/>
	<path class="st0" d="M63.5,104.9c-3.8,0-7.5,0-11.3,0c0,0.1,0,0.1,0,0.2c3.8,0,7.5,0,11.3,0C63.5,105.1,63.5,105,63.5,104.9z"/>
	<path class="st0" d="M391.7,42.5c-8.7,0-17.4,0-26.1,0c0,0.1-0.1,0.2-0.1,0.4c8.7,0,17.5,0,26.2,0
		C391.7,42.8,391.7,42.7,391.7,42.5z"/>
	<path class="st0" d="M359.2,41.5c-4.6,0-9.1,0-13.7,0c0,0.1,0,0.2,0,0.4c4.5,0,9,0,13.6,0C359.1,41.8,359.2,41.6,359.2,41.5z"/>
	<path class="st0" d="M408.7,39.6c-3-1.1-5.9-2.3-8.9-3.4c-0.1,0.3-0.2,0.5-0.3,0.8c3,1.1,6,2.2,8.9,3.4
		C408.5,40,408.6,39.8,408.7,39.6z"/>
	<path class="st0" d="M399.5,29.8c-2.4-0.6-4.7-1.2-7.1-1.7c0,0.3-0.1,0.6-0.1,0.9c2.3,0.6,4.7,1.1,7,1.7
		C399.3,30.4,399.4,30.1,399.5,29.8z"/>
	<path class="st0" d="M440.4,46.5c-2.3-0.4-4.6-0.8-6.9-1.2c0,0.2,0,0.5,0,0.7c2.2,0.5,4.5,1.1,6.7,1.6
		C440.3,47.2,440.4,46.8,440.4,46.5z"/>
	<path class="st0" d="M251.4,90.5c3.3,0.7,6.7,1.3,10,2c0.1-0.4,0.1-0.7,0.2-1.1c-3.4-0.5-6.7-1.1-10.1-1.6
		C251.4,90.1,251.4,90.3,251.4,90.5z"/>
	<path class="st0" d="M454.8,86.4c10.5,0,21.1,0,31.6,0C475.9,84,465.4,85.7,454.8,86.4z"/>
	<path class="st0" d="M694.5,135.5c-6.2-4.5-12.3-8.9-19.1-13.7C677.6,126.7,691,136,694.5,135.5z"/>
	<path class="st0" d="M673.1,154.2c0.1-0.1,0.2-0.2,0.3-0.3c1.3,0.8,2.5,1.6,3.8,2.4c0.1-0.2,0.2-0.3,0.4-0.5
		c-3.7-3.2-7.5-6.4-11.2-9.6c-0.3,0.2-0.6,0.4-0.8,0.6c1.7,4.4,5.2,7.1,9.2,9.5C674.2,155.7,673.7,154.9,673.1,154.2z"/>
	<path class="st0" d="M673.9,149.5c-3.6-3-7-6.1-10.5-9.1c-0.2,0.3-0.5,0.5-0.7,0.8c5.6,4.9,11.1,9.8,16.7,14.6
		c0.5,0.4,1.4,0.3,2.1,0.5c-0.7-0.9-1.2-2-2-2.7C677.8,152,675.7,150.9,673.9,149.5z"/>
	<path class="st0" d="M681.6,156.2L681.6,156.2C681.6,156.2,681.6,156.2,681.6,156.2C681.6,156.2,681.6,156.2,681.6,156.2z"/>
	<path class="st0" d="M687.7,167.4c5.2,4.6,10.1,9.8,16.1,13.4c0.3-0.4,0.6-0.7,0.9-1.1c-5.4-4.5-10.8-8.9-16.2-13.4
		C688.2,166.7,688,167.1,687.7,167.4z"/>
</g>
</svg>
