<?xml version="1.0" encoding="utf-8"?>
<!-- Generator: Adobe Illustrator 19.0.0, SVG Export Plug-In . SVG Version: 6.00 Build 0)  -->
<svg version="1.1" id="Warstwa_1" xmlns="http://www.w3.org/2000/svg" xmlns:xlink="http://www.w3.org/1999/xlink" x="0px" y="0px"
	 viewBox="0 0 212.9 186.9" style="enable-background:new 0 0 212.9 186.9;" xml:space="preserve">
<style type="text/css">
	.st0{fill:none;stroke:#e00069;stroke-width:5;stroke-linecap:round;stroke-miterlimit:10;}
	.st1{fill:none;stroke:#e00069;stroke-width:5;stroke-linecap:round;stroke-linejoin:round;stroke-miterlimit:10;}
	.st2{display:none;fill:none;}
</style>
<path class="st0" d="M54,150.4l-26.5-26.5c-7.4-7.4-7.4-19.5,0-26.9L87,37.6c7.4-7.4,19.5-7.4,26.9,0l26.5,26.5
	c7.4,7.4,7.4,19.5,0,26.9l-59.5,59.5C73.5,157.8,61.4,157.8,54,150.4z"/>
<path class="st0" d="M119.1,42.8l12.7-12.7c8.3-8.3,22-8.3,30.3,0l3.2,2.6l3.6-3.6"/>
<path class="st0" d="M133.9,58.7l15.6-15.6l3,2.2c7.7,7.7,22.2,7.9,29.8,0.3l1.9-1.9"/>
<line class="st0" x1="127.1" y1="34.7" x2="142.5" y2="50.1"/>
<polyline class="st1" points="188.3,11.7 197.1,2.5 210.4,16.5 203.1,24.7 "/>
<path class="st0" d="M36.7,132.7l-16,16c-4.2,4.2-11,4.2-15.1,0c-4.2-4.2-4.2-11,0-15.1l16-16"/>
<path class="st0" d="M58.8,155.3l-26,26c-4.2,4.2-11,4.2-15.1,0c-4.2-4.2-4.2-11,0-15.1l26-26"/>
<line class="st0" x1="5.6" y1="133.5" x2="20.8" y2="148.6"/>
<line class="st0" x1="12.1" y1="127" x2="27.2" y2="142.2"/>
<line class="st0" x1="18.5" y1="165.3" x2="33.6" y2="180.5"/>
<line class="st0" x1="24.9" y1="158.9" x2="40.1" y2="174"/>
<line class="st0" x1="23.9" y1="100.7" x2="77.2" y2="154.1"/>
<line class="st0" x1="92" y1="32.6" x2="145.3" y2="86"/>
<line class="st0" x1="98.3" y1="53.2" x2="44.7" y2="106.8"/>
<line class="st0" x1="123.6" y1="78.5" x2="70" y2="132.1"/>
<line class="st0" x1="111" y1="65.9" x2="57.4" y2="119.5"/>
<path class="st0" d="M181.4,40.8l-8.1-8.1c-4.4-4.4-4.4-11.7,0-16.2l1.8-1.8c4.4-4.4,11.7-4.4,16.2,0l8.1,8.1
	c4.4,4.4,4.4,11.7,0,16.2l-1.8,1.8C193.1,45.2,185.8,45.2,181.4,40.8z"/>
<rect class="st2" width="212.9" height="186.9"/>
</svg>
