<?xml version="1.0" encoding="utf-8"?>
<!-- Generator: Adobe Illustrator 19.0.0, SVG Export Plug-In . SVG Version: 6.00 Build 0)  -->
<svg version="1.1" id="Warstwa_1" xmlns="http://www.w3.org/2000/svg" xmlns:xlink="http://www.w3.org/1999/xlink" x="0px" y="0px"
	 viewBox="0 0 136.9 44.4" style="enable-background:new 0 0 136.9 44.4;" xml:space="preserve">
<style type="text/css">
	.st0{fill:#FFFFFF;}
	.st1{display:none;fill:none;}
</style>
<path class="st0" d="M24.7,16.4c0-2.9,1.7-4.5,4.2-4.5c2.4,0,4.3,1.8,4.3,4.3c0,2.9-1.9,4.6-4.3,4.6C26.5,20.8,24.7,19,24.7,16.4
	 M123.5,16.4c0-2.9,1.7-4.5,4.2-4.5c2.4,0,4.3,1.8,4.3,4.3c0,2.8-2,4.6-4.3,4.6C125.2,20.8,123.5,19,123.5,16.4 M82.3,11.8
	c1.7,0,2.5,0.7,2.9,1.6l-6.8,2.3C78.4,13.3,79.9,11.8,82.3,11.8 M57.6,17V8.5h-4.4v7.9c0,2.4-0.9,4.1-3.4,4.1
	c-2.5,0-3.4-1.7-3.4-4.1V8.5H42V17c0,4.5,2.6,7.6,7.8,7.6C54.9,24.6,57.6,21.4,57.6,17 M110.9,24.2h4.4V8.5h-4.4V24.2z M61.8,15.3
	v8.8h4.4v-8.5c0-2.5,1.3-3.4,5.4-3.3V8.3C64.8,7.8,61.8,10.4,61.8,15.3 M89.5,22.6l-1.9-3.2c-1.1,0.8-2.4,1.4-4.4,1.4
	c-1.9,0-3.4-0.6-4.2-1.9l10.9-3.4c-0.4-4.8-3.1-7.4-7.6-7.4c-4.8,0-8,3.3-8,8.2c0,5.1,3.6,8.3,9,8.3C86,24.6,88.1,23.9,89.5,22.6
	 M101.8,12.2c1.5,0,2.4,0.4,3.4,1.1l1.9-3.3c-1.4-1.2-3.2-1.8-5.7-1.8c-4.6,0-8.4,3.1-8.4,8.2c0,5.2,3.7,8.2,8.6,8.2
	c2.5,0,4.2-0.6,5.6-1.9l-1.9-3.2c-0.9,0.7-1.8,1.2-3.4,1.2c-2.6,0-4.5-1.6-4.5-4.2C97.5,13.8,99.4,12.2,101.8,12.2 M33.3,24.2h4.1
	V8.5h-4.1V10c-1.2-1.3-2.8-1.9-5-1.9c-4.6,0-8,3.3-8,8.3c0,4.9,3.3,8.2,8,8.2c2.1,0,3.8-0.6,5-1.9V24.2z M132,24.2h4.1V8.5H132v1.6
	c-1.3-1.4-3.1-2-5-2c-4.6,0-8,3.3-8,8.3c0,4.9,3.3,8.2,8,8.2c1.9,0,3.7-0.6,5-2.1V24.2z M110.9,5.7h4.4V1.4h-4.4V5.7z M18.3,12.7
	V8.5h-7.1V7.7c0-2.8,1.7-4,7.3-3.4V0.2c-7.9-1-11.7,1.9-11.7,7.2v16.8h4.4V12.7H18.3z"/>
<rect y="8.5" class="st0" width="4" height="4.2"/>
<path class="st0" d="M21.1,32.3c0-0.5,0.4-0.9,0.9-0.9c0.5,0,0.9,0.4,0.9,0.9c0,0.5-0.4,0.9-0.9,0.9C21.5,33.2,21.1,32.8,21.1,32.3
	 M21.3,34.2h1.4v7.4h-1.4V34.2z"/>
<path class="st0" d="M24.9,35.5c0-0.4,0-0.8,0-1.2h1.4v0.9h0c0.3-0.6,1.3-1.1,2.3-1.1c1.7,0,2.8,1.1,2.8,3v4.6H30v-4.3
	c0-1.3-0.5-2.2-1.8-2.2c-1.3,0-1.9,1-1.9,1.9v4.5h-1.4V35.5z"/>
<path class="st0" d="M33.1,40.4h3c1,0,1.5-0.1,1.5-0.8c0-0.6-0.5-0.7-1.4-1l-1-0.2C34,38.1,33,37.8,33,36.2c0-0.6,0.2-1.1,0.6-1.4
	c0.5-0.4,1.1-0.6,2.2-0.6h2.7l-0.1,1.2h-2.7c-0.9,0-1.3,0.1-1.3,0.7c0,0.6,0.3,0.7,1.3,1l1,0.2c1.3,0.3,2.4,0.6,2.4,2.2
	c0,0.8-0.3,1.3-0.8,1.7c-0.6,0.4-1.3,0.5-2.2,0.5h-2.9V40.4z"/>
<path class="st0" d="M40.6,35.5c0-0.4,0-0.8,0-1.2H42c0,0.3,0,0.6,0,0.9h0c0.5-0.7,1.4-1.2,2.5-1.2c2.2,0,3.6,1.7,3.6,4
	c0,2.3-1.5,3.9-3.7,3.9c-1.2,0-2-0.5-2.5-1.1c0,0.3,0,1.1,0,1.8v1.6h-1.4V35.5z M46.7,37.9c0-1.5-0.9-2.7-2.4-2.7
	c-1.5,0-2.4,1.2-2.4,2.7c0,1.6,0.9,2.8,2.4,2.8C45.8,40.7,46.7,39.5,46.7,37.9"/>
<path class="st0" d="M49.6,32.3c0-0.5,0.4-0.9,0.9-0.9c0.5,0,0.9,0.4,0.9,0.9c0,0.5-0.4,0.9-0.9,0.9C50,33.2,49.6,32.8,49.6,32.3
	 M49.8,34.2h1.4v7.4h-1.4V34.2z"/>
<path class="st0" d="M53.4,35.5c0-0.4,0-0.8,0-1.2h1.4v0.9h0c0.2-0.7,0.9-1.1,1.8-1.1c0.2,0,0.3,0,0.4,0v1.3c-0.1,0-0.4,0-0.5,0
	c-1.3,0-1.6,1-1.6,2.4v3.9h-1.4V35.5z"/>
<path class="st0" d="M58,32.3c0-0.5,0.4-0.9,0.9-0.9c0.5,0,0.9,0.4,0.9,0.9c0,0.5-0.4,0.9-0.9,0.9C58.4,33.2,58,32.8,58,32.3
	 M58.3,34.2h1.4v7.4h-1.4V34.2z"/>
<path class="st0" d="M61.9,35.5c0-0.4,0-0.8,0-1.2h1.4v0.9h0c0.3-0.6,1.3-1.1,2.3-1.1c1.7,0,2.8,1.1,2.8,3v4.6h-1.4v-4.3
	c0-1.3-0.5-2.2-1.8-2.2c-1.3,0-1.9,1-1.9,1.9v4.5h-1.4V35.5z"/>
<path class="st0" d="M70,43.1l0.9-1c0.7,0.6,1.5,1.1,2.7,1.1c1.3,0,2.5-0.6,2.5-2.4c0-0.2,0-0.4,0-0.6h0c-0.5,0.6-1.5,1.1-2.6,1.1
	c-2.1,0-3.5-1.6-3.5-3.6c0-2.1,1.5-3.6,3.6-3.6c1.1,0,2,0.4,2.5,1.1h0v-0.8h1.3c0,0.4,0,0.6,0,1v5.5c0,2.6-1.8,3.6-3.9,3.6
	C72.2,44.4,70.9,43.9,70,43.1 M76.1,37.7c0-1.4-0.9-2.4-2.4-2.4c-1.4,0-2.3,1.1-2.3,2.4c0,1.3,0.9,2.4,2.3,2.4
	C75.1,40.1,76.1,39,76.1,37.7"/>
<path class="st0" d="M83,35.5c0-0.4,0-0.8,0-1.2h1.4v0.9h0c0.3-0.6,1.2-1.1,2.3-1.1c1.1,0,1.9,0.5,2.4,1.3h0
	c0.3-0.5,1.2-1.3,2.6-1.3c1.7,0,2.7,1.1,2.7,3v4.6H93v-4.3c0-1.3-0.4-2.2-1.7-2.2c-1.3,0-1.8,1-1.8,1.9v4.5H88v-4.3
	c0-1.3-0.4-2.2-1.7-2.2c-1.3,0-1.8,1-1.8,1.9v4.5H83V35.5z"/>
<path class="st0" d="M96,38c0-2.4,1.6-4,3.9-4c2.3,0,3.9,1.6,3.9,4c0,2.3-1.6,3.9-3.9,3.9C97.6,41.9,96,40.3,96,38 M102.4,38
	c0-1.6-1-2.7-2.4-2.7c-1.5,0-2.4,1.2-2.4,2.7c0,1.6,1,2.7,2.4,2.7S102.4,39.6,102.4,38"/>
<path class="st0" d="M106.8,40.7v0.9h-1.3V31.5h1.4V33c0,0.8,0,1.4,0,2.1h0c0.5-0.7,1.4-1.2,2.5-1.2c2.2,0,3.6,1.7,3.6,4
	c0,2.3-1.5,3.9-3.7,3.9C108.2,41.9,107.3,41.4,106.8,40.7 M111.6,37.9c0-1.5-0.9-2.7-2.4-2.7s-2.4,1.2-2.4,2.7
	c0,1.6,0.9,2.8,2.4,2.8C110.7,40.7,111.6,39.5,111.6,37.9"/>
<path class="st0" d="M114.5,32.3c0-0.5,0.4-0.9,0.9-0.9c0.5,0,0.9,0.4,0.9,0.9c0,0.5-0.4,0.9-0.9,0.9
	C114.9,33.2,114.5,32.8,114.5,32.3 M114.7,34.2h1.4v7.4h-1.4V34.2z"/>
<rect x="118.3" y="31.5" class="st0" width="1.4" height="10.1"/>
<path class="st0" d="M121.7,32.3c0-0.5,0.4-0.9,0.9-0.9c0.5,0,0.9,0.4,0.9,0.9c0,0.5-0.4,0.9-0.9,0.9
	C122.1,33.2,121.7,32.8,121.7,32.3 M121.9,34.2h1.4v7.4h-1.4V34.2z"/>
<polygon class="st0" points="125.9,35.5 124.9,35.5 124.9,34.2 125.9,34.2 125.9,32.2 127.3,32.2 127.3,34.2 129.4,34.2 129.4,35.5 
	127.3,35.5 127.3,41.7 125.9,41.7 "/>
<path class="st0" d="M132.6,41.7l-2.8-7.5h1.5l1.4,4c0.2,0.7,0.5,1.3,0.6,1.9h0c0.2-0.7,0.4-1.2,0.7-2l1.4-4h1.5l-4,10h-1.4
	L132.6,41.7z"/>
<rect y="0" class="st1" width="136.9" height="44.4"/>
</svg>
