<?xml version="1.0" encoding="utf-8"?>
<!-- Generator: Adobe Illustrator 19.0.0, SVG Export Plug-In . SVG Version: 6.00 Build 0)  -->
<svg version="1.1" id="Warstwa_1" xmlns="http://www.w3.org/2000/svg" xmlns:xlink="http://www.w3.org/1999/xlink" x="0px" y="0px"
	 viewBox="0 0 200 200" style="enable-background:new 0 0 200 200;" xml:space="preserve">
<style type="text/css">
	.st0{fill:none;stroke:#6C6D6D;stroke-width:5;stroke-linecap:round;stroke-miterlimit:10;}
	.st1{fill:#6C6D6D;stroke:#6C6D6D;stroke-miterlimit:10;}
</style>
<line id="XMLID_14_" class="st0" x1="79.9" y1="29.4" x2="79.9" y2="42.6"/>
<path id="XMLID_13_" class="st0" d="M54.1,162.3c0,0-3,18.8,0,34.9"/>
<path id="XMLID_12_" class="st0" d="M96.3,29.3h26.5c0,0,10.4,0.7,7.9-8.7c-2.3-9.4-6.4-18.1-14.5-18.1H96.3h-0.4h-20
	c-7.9,0-12,8.9-14.5,18.1c-2.3,9.4,7.9,8.7,7.9,8.7h26.5H96.3z"/>
<line id="XMLID_11_" class="st0" x1="112.4" y1="29.3" x2="112.4" y2="42.5"/>
<path id="XMLID_10_" class="st0" d="M158.9,151.1c0,0,4.4-8.4,4.4-31.2s-11-51.1-13-58c-2-6.9-5.9-14.5-19.1-17.1
	c-13.2-2.7-34.8-2.2-34.8-2.2h-0.4c0,0-21.6-0.5-34.8,2.2C47.9,47.5,44,54.9,42,61.9c-2,6.9-13,35.3-13,58s4.4,31.2,4.4,31.2"/>
<path id="XMLID_9_" class="st0" d="M96.3,197.2h50.4c33.3-3.3,31.2-36.8,31.2-36.8c0-11-11.7-10.7-11.7-10.7
	c-11.2,0-20.7,13.9-20.7,13.9c-23.9-6.9-49.2-6.4-49.2-6.4H96c0,0-25.2-0.5-49.2,6.4c0,0-9.5-13.9-20.7-13.9c0,0-11.7-0.3-11.7,10.7
	c0,0-2,33.6,31.2,36.8h50.2H96.3z"/>
<path id="XMLID_8_" class="st0" d="M132.6,151.1c0,0,3.4-31.2-5.4-78.6c0,0-0.8-6.9-8.3-7.9c-7.4-1-22.6-1.3-22.6-1.3h-0.4
	c0,0-15.1,0.3-22.6,1.3c-7.5,1-8.3,7.9-8.3,7.9c-8.9,47.3-5.4,78.6-5.4,78.6"/>
<path id="XMLID_7_" class="st0" d="M140.1,162.3c0,0,3,18.8,0,34.9"/>
<path id="XMLID_6_" class="st1" d="M20.1,36.7c0,4.1-3.3,7.4-7.4,7.4s-7.3-3.4-7.3-7.4s3.3-7.4,7.4-7.4S20.1,32.6,20.1,36.7"/>
<path id="XMLID_5_" class="st1" d="M20.1,136.9c0,4.1-3.3,7.4-7.4,7.4s-7.3-3.4-7.3-7.4c0-4.1,3.3-7.4,7.4-7.4
	S20.1,132.9,20.1,136.9"/>
<path id="XMLID_4_" class="st1" d="M194.4,144.3c0,4.1-3.3,7.4-7.4,7.4c-4.1,0-7.4-3.3-7.4-7.4s3.3-7.4,7.4-7.4
	C191.1,136.9,194.4,140.2,194.4,144.3"/>
<path id="XMLID_3_" class="st0" d="M180.6,140.6C110.1,76.5,19.3,39.9,19.3,39.9"/>
<path id="XMLID_2_" class="st0" d="M20,135.6c0,0,74.6-30.7,160.6,5"/>
</svg>
