<?xml version="1.0" encoding="utf-8"?>
<!-- Generator: Adobe Illustrator 19.0.0, SVG Export Plug-In . SVG Version: 6.00 Build 0)  -->
<svg version="1.1" xmlns="http://www.w3.org/2000/svg" xmlns:xlink="http://www.w3.org/1999/xlink" x="0px" y="0px"
	 viewBox="0 0 311.8 142.6" style="enable-background:new 0 0 311.8 142.6;" xml:space="preserve">
<style type="text/css">
	.st0{fill:#034EA2;}
	.st1{fill:#FFFFFF;}
</style>
<g id="Blue_Seal">
	<g id="XMLID_110_">
		<path id="XMLID_113_" class="st0" d="M298.3,117.1H13.6c-5.5,0-10.4-2.6-13.6-6.6v18.2c0,7.6,6.1,13.8,13.6,13.8h284.7
			c7.5,0,13.6-6.2,13.6-13.8v-18.2C308.6,114.6,303.7,117.1,298.3,117.1"/>
		<path id="XMLID_112_" class="st0" d="M298.2,0H150.8c4,3.3,6.5,8.2,6.5,13.8v85.5c0,5.6-2.5,10.6-6.5,13.8h147.5
			c7.5,0,13.6-6.2,13.6-13.8V13.8C311.8,6.2,305.7,0,298.2,0"/>
		<path id="XMLID_111_" class="st0" d="M139.8,0H0v99.4c0,7.6,6.1,13.8,13.6,13.8h126.2c7.5,0,13.6-6.2,13.6-13.8V13.8
			C153.4,6.2,147.3,0,139.8,0"/>
	</g>
	<g id="XMLID_30_">
		<path id="XMLID_96_" class="st1" d="M31.6,95.1h2.6v-2.6h-2.6V95.1z M109.5,88.5h6.9v-1.8h-8.7v14.6h9v-1.8h-7.1V88.5z
			 M126.6,95.2l-0.2-0.2c1.8-0.5,3-2,3-4c0-1.3-0.5-2.4-1.4-3.2c-0.9-0.8-1.8-1.1-3.6-1.1H119v14.6h1.8v-5.9h3.8
			c0.4,0.6,0.6,0.8,1.1,1.5c1.2,1.8,1.9,3.1,2.3,4.4h1.9c-0.4-1.2-0.6-1.7-1.1-2.7C128.1,97.3,127.6,96.5,126.6,95.2z M124.7,93.7
			h-3.9v-5.4h4c1.7,0,2.7,1,2.7,2.7C127.5,92.8,126.5,93.7,124.7,93.7z M30,88.5h6.9v-1.8h-8.7v14.6h9v-1.8H30V88.5z M85.6,86.5
			c-2.3,0-3.8,0.6-5.1,2.1c-1.3,1.4-1.8,3.1-1.8,5.4c0,2.4,0.6,4.2,1.8,5.5c1.3,1.5,2.8,2.1,5,2.1c2.3,0,3.8-0.6,5.1-2.2
			c1.2-1.4,1.8-3.1,1.8-5.4c0-2.4-0.6-4.1-1.8-5.5C89.3,87.1,87.9,86.5,85.6,86.5z M85.5,100c-3.1,0-4.9-2.2-4.9-6.1
			c0-3.7,1.7-5.8,4.9-5.8c3.3,0,5,2,5,5.9C90.5,97.8,88.7,100,85.5,100z M111.2,95.1h2.6v-2.6h-2.6V95.1z M47.2,98.6L41,86.7h-1.9
			L39,101.4h1.8V90.1l5.9,11.2h0.8l5.8-11.2v11.2l1.8,0V86.7h-1.8L47.2,98.6z M99.6,93.9l-4.8-7.2h-2.1l5.9,8.8v5.9h1.9v-5.9
			l6.2-8.8h-2.1L99.6,93.9z M63,86.7h-5.6v14.6h1.8v-5.8h3.8c2.7,0,4.5-1.8,4.5-4.5c0-1.2-0.4-2.4-1.2-3.2
			C65.6,87.1,64.7,86.7,63,86.7z M62.8,93.9h-3.5v-5.5h3.5c1.9,0,2.8,0.9,2.8,2.8C65.6,93,64.7,93.9,62.8,93.9z M71.4,86.7h-1.8
			v14.6h8.7v-1.7h-6.9V86.7z"/>
		<path id="XMLID_90_" class="st1" d="M56.2,24.6H39.4V13.2H28.2v58h11.2V36.1h4.8C46.8,31,51,27,56.2,24.6 M107.7,24.6l-0.3,0h-1.6
			v11.4h1.9c6.2,0.3,11.1,5.5,11.1,11.8c0,6.5-5.2,11.8-11.6,11.8l-3.1,0h-0.5V24.6H92.4v35.1h-4c-2.6,5.1-6.8,9.1-12,11.5h16v11.5
			h11.2V71.2h3.6c12.6,0,22.8-10.4,22.8-23.3C130,35.2,120,24.9,107.7,24.6z M87.3,57c0,0,0-0.1,0.1-0.1c0.6-1.4,1-2.8,1.3-4.3
			c0,0,0-0.1,0-0.1c0.2-0.7,0.3-1.5,0.3-2.3c0,0,0,0,0,0c0.1-0.8,0.1-1.6,0.1-2.4c0-4.6-1.3-8.9-3.6-12.5
			c-3.7-5.8-9.8-9.9-16.9-10.7c-0.8-0.1-1.5-0.1-2.3-0.1c-9.4,0-17.5,5.8-21,14.1c0,0.1-0.1,0.2-0.1,0.3c-0.3,0.6-0.5,1.3-0.7,2
			c0,0.1,0,0.1-0.1,0.2c-0.2,0.6-0.3,1.2-0.5,1.9c0,0.1,0,0.2-0.1,0.3c-0.1,0.7-0.2,1.4-0.3,2.1c0,0.1,0,0.2,0,0.3
			c-0.1,0.7-0.1,1.5-0.1,2.2c0,2.4,0.4,4.8,1,7c2.7,8.7,10.3,15.2,19.4,16.2c0.8,0.1,1.6,0.1,2.4,0.1C75.7,71.2,83.8,65.4,87.3,57z
			 M66.4,59.7h-0.1v0c-6.4,0-11.6-5.3-11.6-11.8c0-6.5,5.2-11.8,11.6-11.8c6.4,0,11.6,5.3,11.6,11.8C77.9,54.3,72.7,59.6,66.4,59.7z
			 M14.7,36.1H26V24.6H14.7V36.1z"/>
		<path id="XMLID_87_" class="st1" d="M127.3,24.6c-2.1,0-3.8,1.7-3.8,3.8c0,2.1,1.7,3.8,3.8,3.8c2.1,0,3.8-1.7,3.8-3.8
			C131.1,26.3,129.4,24.6,127.3,24.6 M127.3,31.5c-1.6,0-3-1.4-3-3c0-1.7,1.3-3,3-3c1.6,0,3,1.4,3,3
			C130.3,30.1,128.9,31.5,127.3,31.5z"/>
		<path id="XMLID_84_" class="st1" d="M129,30.1c-0.1-0.3-0.2-0.4-0.3-0.7c-0.1-0.3-0.3-0.5-0.4-0.7c0.4-0.2,0.6-0.6,0.6-1
			c0-0.4-0.1-0.7-0.4-0.9c-0.3-0.2-0.5-0.3-1-0.3H126v3.9h0.8v-1.4l0.6-0.1c0.1,0.1,0.1,0.2,0.3,0.4c0.3,0.4,0.4,0.7,0.5,1l0,0.1
			h0.9L129,30.1 M127.5,28.2h-0.8v-0.9h0.8c0.3,0,0.5,0.1,0.5,0.5C128,28,127.9,28.2,127.5,28.2z"/>
		<path id="XMLID_83_" class="st1" d="M21.4,132.1v1c-0.8,0.4-1.6,0.5-2.4,0.5c-2.5,0-4.1-1.6-4.1-4.2c0-1.6,0.6-2.9,1.7-3.6
			c0.6-0.4,1.3-0.6,2.3-0.6c0.9,0,1.4,0.1,2.2,0.5c0,0,0.1,0,0.1,0.1v1c-0.9-0.5-1.5-0.7-2.4-0.7c-1.8,0-2.8,1.1-2.8,3.1
			c0,1.1,0.2,1.8,0.7,2.4c0.6,0.7,1.3,1,2.3,1C19.7,132.7,20.6,132.5,21.4,132.1"/>
		<polyline id="XMLID_82_" class="st1" points="27.9,132.5 27.9,133.5 22.9,133.5 22.9,125.4 27.7,125.4 27.7,126.3 23.9,126.3 
			23.9,128.8 27.3,128.8 27.3,129.7 23.9,129.7 23.9,132.5 27.9,132.5 		"/>
		<path id="XMLID_79_" class="st1" d="M30.6,130.2v3.3h-1v-8.1h3.1c1,0,1.5,0.1,2,0.6c0.5,0.4,0.8,1.1,0.8,1.7c0,1.1-0.6,2-1.6,2.2
			l0.1,0.1c0.6,0.7,0.8,1.2,1.2,1.9c0.3,0.6,0.4,0.9,0.6,1.5h-1.1c-0.3-0.7-0.6-1.4-1.3-2.4c-0.3-0.4-0.4-0.5-0.6-0.9H30.6
			 M30.6,129.2h2.2c1,0,1.5-0.5,1.5-1.5c0-1-0.5-1.5-1.5-1.5h-2.2V129.2z"/>
		<polyline id="XMLID_78_" class="st1" points="36.4,125.4 42.5,125.4 42.5,126.4 40,126.4 40,133.5 39,133.5 39,126.4 36.4,126.4 
			36.4,125.4 		"/>
		<rect id="XMLID_77_" x="43.7" y="125.4" class="st1" width="1" height="8.1"/>
		<polyline id="XMLID_76_" class="st1" points="47.8,130 47.8,133.5 46.8,133.5 46.8,125.4 51.6,125.4 51.6,126.3 47.8,126.3 
			47.8,129 51,129 51,130 47.8,130 		"/>
		<rect id="XMLID_75_" x="53.1" y="125.4" class="st1" width="1" height="8.1"/>
		<polyline id="XMLID_74_" class="st1" points="61.2,132.5 61.2,133.5 56.2,133.5 56.2,125.4 61,125.4 61,126.3 57.2,126.3 
			57.2,128.8 60.6,128.8 60.6,129.7 57.2,129.7 57.2,132.5 61.2,132.5 		"/>
		<path id="XMLID_71_" class="st1" d="M62.9,125.4h3.3c2.2,0,3.6,1.6,3.6,4c0,1.2-0.3,2.1-1.1,2.9c-0.8,0.8-1.7,1.2-2.9,1.2h-2.9
			V125.4 M63.9,132.5h2.2c1.7,0,2.7-1.2,2.7-3.1c0-0.8-0.2-1.5-0.5-2c-0.5-0.7-1.1-1-2-1h-2.3V132.5z"/>
		<polyline id="XMLID_70_" class="st1" points="79.8,132.5 79.8,133.5 74.9,133.5 74.9,125.4 79.7,125.4 79.7,126.3 75.9,126.3 
			75.9,128.8 79.2,128.8 79.2,129.7 75.9,129.7 75.9,132.5 79.8,132.5 		"/>
		<polyline id="XMLID_69_" class="st1" points="80.6,125.4 81.9,125.4 84.5,128.5 87.1,125.4 88.3,125.4 85.1,129.3 88.4,133.5 
			87.1,133.5 84.5,130.1 81.8,133.5 80.6,133.5 83.9,129.4 80.6,125.4 		"/>
		<path id="XMLID_68_" class="st1" d="M95.4,132.1v1c-0.8,0.4-1.6,0.5-2.4,0.5c-2.5,0-4.1-1.6-4.1-4.2c0-1.6,0.6-2.9,1.7-3.6
			c0.6-0.4,1.3-0.6,2.3-0.6c0.9,0,1.4,0.1,2.2,0.5c0,0,0.1,0,0.1,0.1v1c-0.9-0.5-1.5-0.7-2.4-0.7c-1.8,0-2.8,1.1-2.8,3.1
			c0,1.1,0.2,1.8,0.7,2.4c0.6,0.7,1.3,1,2.3,1C93.8,132.7,94.6,132.5,95.4,132.1"/>
		<polyline id="XMLID_67_" class="st1" points="102,132.5 102,133.5 97,133.5 97,125.4 101.8,125.4 101.8,126.3 98,126.3 98,128.8 
			101.4,128.8 101.4,129.7 98,129.7 98,132.5 102,132.5 		"/>
		<polyline id="XMLID_66_" class="st1" points="108.5,132.5 108.5,133.5 103.7,133.5 103.7,125.4 104.7,125.4 104.7,132.5 
			108.5,132.5 		"/>
		<polyline id="XMLID_65_" class="st1" points="114.5,132.5 114.5,133.5 109.7,133.5 109.7,125.4 110.7,125.4 110.7,132.5 
			114.5,132.5 		"/>
		<polyline id="XMLID_64_" class="st1" points="120.6,132.5 120.6,133.5 115.7,133.5 115.7,125.4 120.5,125.4 120.5,126.3 
			116.7,126.3 116.7,128.8 120.1,128.8 120.1,129.7 116.7,129.7 116.7,132.5 120.6,132.5 		"/>
		<polyline id="XMLID_63_" class="st1" points="122.4,125.4 123.3,125.4 128.3,131.7 128.3,125.4 129.3,125.4 129.3,133.5 
			128.4,133.5 123.3,127.1 123.3,133.5 122.4,133.5 122.4,125.4 		"/>
		<path id="XMLID_62_" class="st1" d="M137.6,132.1v1c-0.8,0.4-1.6,0.5-2.4,0.5c-2.5,0-4.1-1.6-4.1-4.2c0-1.6,0.6-2.9,1.7-3.6
			c0.6-0.4,1.3-0.6,2.3-0.6c0.9,0,1.4,0.1,2.2,0.5c0,0,0.1,0,0.1,0.1v1c-0.9-0.5-1.5-0.7-2.4-0.7c-1.8,0-2.8,1.1-2.8,3.1
			c0,1.1,0.2,1.8,0.7,2.4c0.6,0.7,1.3,1,2.3,1C136,132.7,136.9,132.5,137.6,132.1"/>
		<polyline id="XMLID_61_" class="st1" points="144.2,132.5 144.2,133.5 139.2,133.5 139.2,125.4 144,125.4 144,126.3 140.2,126.3 
			140.2,128.8 143.6,128.8 143.6,129.7 140.2,129.7 140.2,132.5 144.2,132.5 		"/>
		<rect id="XMLID_60_" x="149.1" y="125.4" class="st1" width="1" height="8.1"/>
		<polyline id="XMLID_59_" class="st1" points="152.2,125.4 153.2,125.4 158.2,131.7 158.2,125.4 159.2,125.4 159.2,133.5 
			158.3,133.5 153.2,127.1 153.2,133.5 152.2,133.5 152.2,125.4 		"/>
		<polyline id="XMLID_58_" class="st1" points="169.5,132.5 169.5,133.5 164.5,133.5 164.5,125.4 169.3,125.4 169.3,126.3 
			165.5,126.3 165.5,128.8 168.9,128.8 168.9,129.7 165.5,129.7 165.5,132.5 169.5,132.5 		"/>
		<polyline id="XMLID_57_" class="st1" points="171.3,125.4 172.3,125.4 175.7,131.9 179.1,125.4 180.1,125.4 180.1,133.4 
			179.1,133.5 179.1,127.3 175.9,133.5 175.4,133.5 172.2,127.2 172.2,133.5 171.2,133.5 171.3,125.4 		"/>
		<path id="XMLID_54_" class="st1" d="M183.2,130.3v3.2h-1v-8.1h3.1c0.9,0,1.4,0.2,1.9,0.7c0.4,0.4,0.6,1.1,0.6,1.7
			c0,1.5-1,2.5-2.5,2.5H183.2 M183.2,129.3h1.9c1.1,0,1.6-0.5,1.6-1.5c0-1-0.5-1.5-1.6-1.5h-1.9V129.3z"/>
		<polyline id="XMLID_53_" class="st1" points="194.1,132.5 194.1,133.5 189.3,133.5 189.3,125.4 190.3,125.4 190.3,132.5 
			194.1,132.5 		"/>
		<path id="XMLID_50_" class="st1" d="M194.8,129.4c0-1.3,0.3-2.2,1-3c0.8-0.9,1.5-1.2,2.8-1.2c1.3,0,2,0.3,2.8,1.2
			c0.7,0.8,1,1.7,1,3c0,1.3-0.3,2.2-1,3c-0.7,0.8-1.6,1.2-2.8,1.2c-1.2,0-2-0.3-2.8-1.2C195.1,131.7,194.8,130.7,194.8,129.4
			 M195.9,129.3c0,2.1,1,3.4,2.7,3.4c1.8,0,2.8-1.2,2.8-3.3c0-2.2-1-3.3-2.8-3.3C196.8,126.1,195.9,127.3,195.9,129.3z"/>
		<polyline id="XMLID_49_" class="st1" points="206.1,130.2 202.9,125.4 204,125.4 206.7,129.3 209.4,125.4 210.6,125.4 
			207.2,130.2 207.2,133.5 206.1,133.5 206.1,130.2 		"/>
		<polyline id="XMLID_48_" class="st1" points="216.5,132.5 216.5,133.5 211.6,133.5 211.6,125.4 216.4,125.4 216.4,126.3 
			212.6,126.3 212.6,128.8 215.9,128.8 215.9,129.7 212.6,129.7 212.6,132.5 216.5,132.5 		"/>
		<polyline id="XMLID_47_" class="st1" points="223.2,132.5 223.2,133.5 218.3,133.5 218.3,125.4 223.1,125.4 223.1,126.3 
			219.3,126.3 219.3,128.8 222.6,128.8 222.6,129.7 219.3,129.7 219.3,132.5 223.2,132.5 		"/>
		<path id="XMLID_46_" class="st1" d="M234.4,132.1v1c-0.8,0.4-1.6,0.5-2.4,0.5c-2.5,0-4.1-1.6-4.1-4.2c0-1.6,0.6-2.9,1.7-3.6
			c0.6-0.4,1.3-0.6,2.3-0.6c0.9,0,1.4,0.1,2.2,0.5c0,0,0.1,0,0.1,0.1v1c-0.9-0.5-1.5-0.7-2.4-0.7c-1.8,0-2.8,1.1-2.8,3.1
			c0,1.1,0.2,1.8,0.7,2.4c0.6,0.7,1.3,1,2.3,1C232.8,132.7,233.6,132.5,234.4,132.1"/>
		<path id="XMLID_43_" class="st1" d="M235.5,129.4c0-1.3,0.3-2.2,1-3c0.8-0.9,1.5-1.2,2.8-1.2c1.3,0,2,0.3,2.8,1.2
			c0.7,0.8,1,1.7,1,3c0,1.3-0.3,2.2-1,3c-0.7,0.8-1.6,1.2-2.8,1.2c-1.2,0-2-0.3-2.8-1.2C235.8,131.7,235.5,130.7,235.5,129.4
			 M236.6,129.3c0,2.1,1,3.4,2.7,3.4c1.8,0,2.8-1.2,2.8-3.3c0-2.2-1-3.3-2.8-3.3C237.6,126.1,236.6,127.3,236.6,129.3z"/>
		<polyline id="XMLID_42_" class="st1" points="245,125.4 245.9,125.4 250.9,131.7 250.9,125.4 251.9,125.4 251.9,133.5 
			251.1,133.5 246,127.1 246,133.5 245,133.5 245,125.4 		"/>
		<path id="XMLID_39_" class="st1" d="M254,125.4h3.3c2.2,0,3.6,1.6,3.6,4c0,1.2-0.3,2.1-1.1,2.9c-0.8,0.8-1.7,1.2-2.9,1.2H254
			V125.4 M255,132.5h2.2c1.7,0,2.7-1.2,2.7-3.1c0-0.8-0.2-1.5-0.5-2c-0.5-0.7-1.1-1-2-1H255V132.5z"/>
		<rect id="XMLID_38_" x="262.8" y="125.4" class="st1" width="1" height="8.1"/>
		<polyline id="XMLID_37_" class="st1" points="265,125.4 271.1,125.4 271.1,126.4 268.5,126.4 268.5,133.5 267.5,133.5 
			267.5,126.4 265,126.4 265,125.4 		"/>
		<rect id="XMLID_36_" x="272.2" y="125.4" class="st1" width="1" height="8.1"/>
		<path id="XMLID_33_" class="st1" d="M275.1,129.4c0-1.3,0.3-2.2,1-3c0.8-0.9,1.5-1.2,2.8-1.2c1.3,0,2,0.3,2.8,1.2
			c0.7,0.8,1,1.7,1,3c0,1.3-0.3,2.2-1,3c-0.7,0.8-1.6,1.2-2.8,1.2c-1.2,0-2-0.3-2.8-1.2C275.4,131.7,275.1,130.7,275.1,129.4
			 M276.1,129.3c0,2.1,1,3.4,2.7,3.4c1.8,0,2.8-1.2,2.8-3.3c0-2.2-1-3.3-2.8-3.3C277.1,126.1,276.1,127.3,276.1,129.3z"/>
		<polyline id="XMLID_32_" class="st1" points="284.5,125.4 285.4,125.4 290.5,131.7 290.5,125.4 291.4,125.4 291.4,133.5 
			290.6,133.5 285.5,127.1 285.5,133.5 284.5,133.5 284.5,125.4 		"/>
		<path id="XMLID_31_" class="st1" d="M293.3,131.9c0.5,0.3,1.2,0.6,1.7,0.7c0.3,0.1,0.6,0.1,0.9,0.1c1,0,1.5-0.4,1.5-1.2
			c0-0.6-0.2-0.9-0.8-1.3l-1.9-1c-0.8-0.4-1.1-0.7-1.3-1.2c-0.1-0.2-0.1-0.4-0.1-0.7c0-1.3,1.1-2.2,2.9-2.2c0.8,0,1.5,0.1,2.1,0.4
			v1.1c-0.7-0.4-1.4-0.6-2.2-0.6c-1.2,0-1.8,0.3-1.8,1.1c0,0.5,0.1,0.7,0.7,1l2.2,1.2c0.8,0.4,1.2,1,1.2,1.9c0,1.4-1,2.3-2.6,2.3
			c-0.9,0-1.6-0.2-2.6-0.7V131.9"/>
	</g>
	<g id="XMLID_18_">
		<path id="XMLID_28_" class="st1" d="M168,90v-1.9c1.3-0.9,2.9-1.4,4.5-1.4c2.7,0,4.5,1.5,4.5,3.8c0,1.3-0.5,2.4-1.6,3.6
			c-0.3,0.4-0.7,0.8-1.3,1.3l-4.5,4.4h7.6v1.6h-9.8v-1.7l5.3-5.2c1.4-1.4,1.9-1.9,2.1-2.5c0.2-0.4,0.3-0.9,0.3-1.3
			c0-1.5-0.9-2.3-2.6-2.3C170.8,88.3,169.4,88.8,168,90z"/>
		<path id="XMLID_25_" class="st1" d="M178.9,94.2c0-2.4,0.3-4,0.9-5.2c0.8-1.5,2.4-2.4,4.3-2.4c2.1,0,3.8,0.9,4.5,2.3
			c0.5,1.1,0.8,2.9,0.8,5.1c0,2.3-0.3,4-0.9,5.1c-0.8,1.4-2.3,2.2-4.2,2.2C180.5,101.5,178.9,99.3,178.9,94.2z M180.8,94.1
			c0,2,0.2,3.4,0.5,4.1c0.5,1,1.6,1.6,2.8,1.6c1.2,0,2.4-0.7,2.8-1.6c0.4-0.8,0.6-2,0.6-4.1c0-2.1-0.2-3.4-0.5-4.4
			c-0.4-1.1-1.4-1.7-2.8-1.7c-1.4,0-2.5,0.6-2.9,1.6C181,90.7,180.8,92.2,180.8,94.1z"/>
		<path id="XMLID_23_" class="st1" d="M195.1,89.2c-0.9,0.7-1.4,0.9-2.7,1.3v-1.8c1.3-0.5,2.3-1,3.2-1.8h1.3v14.5h-1.8V89.2z"/>
		<path id="XMLID_19_" class="st1" d="M203.6,93.3c-1.2-0.5-1.9-1.5-1.9-2.8c0-2.3,1.8-3.8,4.4-3.8c2.6,0,4.4,1.5,4.4,3.8
			c0,1.4-0.7,2.4-2,2.9c1.8,0.6,2.7,1.8,2.7,3.7c0,2.7-2,4.5-5.1,4.5c-3.2,0-5.1-1.7-5.1-4.5C201,95.1,201.9,93.9,203.6,93.3z
			 M202.9,97c0,1.8,1.2,2.8,3.2,2.8c2,0,3.3-1.1,3.3-2.9c0-1.8-1.1-2.8-3.2-2.8C204.1,94.2,202.9,95.2,202.9,97z M203.5,90.4
			c0,1.4,1,2.2,2.6,2.2c1.7,0,2.7-0.9,2.7-2.2c0-1.4-1-2.2-2.7-2.2C204.4,88.2,203.5,89,203.5,90.4z"/>
	</g>
</g>
<g id="country">
	<g id="XMLID_114_">
		<path id="XMLID_128_" class="st1" d="M176.4,69.4v1.7h-9.1V56.6h8.8v1.7h-7v4.4h6.2v1.7h-6.2v5H176.4z"/>
		<path id="XMLID_126_" class="st1" d="M178.9,56.6h1.9v9.9c0,2.1,1.4,3.3,3.9,3.3c2.5,0,4-1.2,4-3.3v-9.9h1.8v9.7
			c0,1.8-0.4,2.8-1.5,3.8c-1.1,0.9-2.4,1.3-4.2,1.3c-1.8,0-3-0.4-4.1-1.3c-1.3-1.1-1.7-1.9-1.7-3.8V56.6z"/>
		<path id="XMLID_123_" class="st1" d="M195.6,65.2v5.9h-1.9V56.6h5.6c1.8,0,2.8,0.3,3.6,1c0.9,0.8,1.4,1.9,1.4,3.1c0,2-1.2,3.5-3,4
			l0.2,0.2c1,1.3,1.6,2.1,2.2,3.4c0.5,1.1,0.7,1.5,1.1,2.7h-1.9c-0.5-1.3-1.2-2.6-2.4-4.4c-0.5-0.7-0.7-1-1.1-1.5H195.6z
			 M195.6,63.5h4c1.8,0,2.8-0.9,2.8-2.6c0-1.7-1-2.7-2.7-2.7h-4.1V63.5z"/>
		<path id="XMLID_120_" class="st1" d="M206.8,63.8c0-2.3,0.6-4,1.9-5.4c1.4-1.5,2.8-2.1,5.2-2.1c2.3,0,3.8,0.6,5.1,2.1
			c1.3,1.4,1.8,3.1,1.8,5.4c0,2.3-0.6,4-1.8,5.4c-1.4,1.5-2.9,2.1-5.2,2.1c-2.3,0-3.8-0.6-5.1-2.1C207.4,67.9,206.8,66.2,206.8,63.8
			z M208.8,63.7c0,3.8,1.8,6,5,6c3.2,0,5.1-2.2,5.1-5.9c0-3.9-1.7-5.9-5.1-5.9C210.5,58,208.8,60,208.8,63.7z"/>
		<path id="XMLID_117_" class="st1" d="M225.5,65.4v5.7h-1.9V56.6h5.6c1.7,0,2.6,0.3,3.5,1.2c0.8,0.8,1.2,1.9,1.2,3.1
			c0,2.7-1.8,4.5-4.6,4.5H225.5z M225.5,63.7h3.5c2,0,2.9-0.9,2.9-2.8c0-1.8-1-2.8-2.9-2.8h-3.6V63.7z"/>
		<path id="XMLID_115_" class="st1" d="M245.3,69.4v1.7h-9.1V56.6h8.8v1.7h-7v4.4h6.2v1.7h-6.2v5H245.3z"/>
	</g>
</g>
</svg>
