<?xml version="1.0" encoding="utf-8"?>
<!-- Generator: Adobe Illustrator 19.0.0, SVG Export Plug-In . SVG Version: 6.00 Build 0)  -->
<svg version="1.1" id="Warstwa_1" xmlns="http://www.w3.org/2000/svg" xmlns:xlink="http://www.w3.org/1999/xlink" x="0px" y="0px"
	 viewBox="0 0 189 189" style="enable-background:new 0 0 189 189;" xml:space="preserve">
<style type="text/css">
	.st0{fill:none;stroke:#2A327E;stroke-width:5;stroke-linecap:round;stroke-miterlimit:10;}
	.st1{display:none;fill:none;}
</style>
<circle class="st0" cx="94.5" cy="94.5" r="92"/>
<path class="st0" d="M158.9,81.8c0,0,1.1,8.3-5.1,5.8s-33.4-24.3-60.9-24.3h-0.3c-27.6,0-54.7,21.8-60.9,24.3
	c-6.3,2.5-5.4-5.6-5.4-5.6l0.2-1.1c6.2-30.8,33.5-54,66.1-54c31.9,0,58.6,22.1,65.7,51.8L158.9,81.8z"/>
<path class="st0" d="M28.6,115.8c0,0-1.1-6.6,5.6-6.6c6.7,0,22.3-0.3,28.5,2c6.2,2.3,13.8,10.3,14.8,17.5c1,7.2,2.7,25.2,2.7,25.2
	s0.9,7.6-4.8,5.8l-1.6-0.4c-20.7-6-37.4-21.7-44.7-41.8L28.6,115.8z"/>
<path class="st0" d="M156.6,115.8c0,0,1.4-6.6-5.3-6.6c-6.7,0-22.3-0.3-28.5,2c-6.2,2.3-13.8,10.3-14.8,17.5
	c-1,7.2-2.7,25.2-2.7,25.2s-0.9,7.6,4.8,5.8l0.9-0.3c21.1-6,38.1-22,45.3-42.6L156.6,115.8z"/>
<circle class="st0" cx="92.2" cy="93.9" r="16.5"/>
<rect class="st1" width="189" height="189"/>
</svg>
